<svg width="1308" height="870" viewBox="0 0 1308 870" fill="none" xmlns="http://www.w3.org/2000/svg">
<mask id="mask0_402_2788" style="mask-type:luminance" maskUnits="userSpaceOnUse" x="0" y="0" width="1304" height="758">
<path d="M1304 0H0V758H1304V0Z" fill="white"/>
</mask>
<g mask="url(#mask0_402_2788)">
<path opacity="0.2" d="M2041.04 729.073C2041.04 729.062 2041.06 729.058 2041.06 729.046C2041.06 729.037 2041.06 729.028 2041.06 729.017C2041.08 728.964 2041.08 728.909 2041.08 728.855C2041.08 728.821 2041.09 728.79 2041.08 728.756C2041.08 728.735 2041.07 728.715 2041.07 728.694C2041.06 728.686 2041.07 728.68 2041.07 728.673C2041.06 728.661 2041.05 728.655 2041.05 728.643C2041.04 728.626 2041.04 728.609 2041.03 728.594C2041.02 728.567 2041.01 728.538 2041 728.512C2040.97 728.462 2040.93 728.42 2040.89 728.376C2040.86 728.351 2040.85 728.324 2040.82 728.303C2040.82 728.301 2040.82 728.3 2040.82 728.298C2040.82 728.295 2040.81 728.297 2040.81 728.294C2040.8 728.285 2040.78 728.28 2040.77 728.271C2040.71 728.227 2040.65 728.185 2040.57 728.156L1548.24 541.876C1548.46 541.265 1548.64 540.633 1548.68 539.964C1548.99 535.641 1545.22 531.916 1540.27 531.644C1535.96 531.409 1532.18 533.859 1531.05 537.337L1027.48 457.758C1027.48 457.706 1027.5 457.657 1027.51 457.604C1027.82 453.281 1024.05 449.554 1019.09 449.285C1015.72 449.101 1012.71 450.579 1011 452.887L881.043 394.662C881.384 393.913 881.636 393.121 881.697 392.274C882.008 387.95 878.239 384.225 873.28 383.954C868.321 383.683 864.05 386.969 863.738 391.293C863.624 392.905 864.076 394.433 864.943 395.729L716.428 488.954C714.905 487.441 712.719 486.436 710.231 486.301C708.015 486.179 705.96 486.798 704.31 487.873L543.469 333.903C544.789 332.633 545.67 331.002 545.802 329.158C546.114 324.835 542.344 321.11 537.385 320.838C532.427 320.567 528.155 323.854 527.844 328.177C527.786 328.985 527.911 329.76 528.12 330.508L318.692 394.084C317.35 391.554 314.537 389.713 311.122 389.525C308.17 389.365 305.482 390.482 303.707 392.31L105.158 272.874C105.789 271.884 106.21 270.774 106.295 269.569C106.606 265.245 102.837 261.52 97.8782 261.249C92.9195 260.978 88.6477 264.264 88.3365 268.588C88.1974 270.516 88.9032 272.305 90.1307 273.742L-257.225 548.666L-546.732 469.273C-546.955 469.211 -547.198 469.231 -547.404 469.328C-547.61 469.425 -547.763 469.588 -547.828 469.785L-696.767 918.029C-696.776 918.055 -696.772 918.08 -696.778 918.106C-696.785 918.136 -696.793 918.167 -696.795 918.197C-696.797 918.214 -696.797 918.23 -696.797 918.249C-696.797 918.268 -696.795 918.288 -696.793 918.308C-696.793 918.312 -696.797 918.317 -696.797 918.323C-696.795 918.334 -696.785 918.34 -696.783 918.35C-696.783 918.355 -696.781 918.359 -696.779 918.364C-696.772 918.397 -696.769 918.429 -696.758 918.461C-696.753 918.473 -696.752 918.487 -696.746 918.499C-696.729 918.538 -696.701 918.573 -696.677 918.611C-696.661 918.634 -696.656 918.66 -696.639 918.682C-696.633 918.688 -696.625 918.69 -696.619 918.697C-696.612 918.705 -696.609 918.716 -696.602 918.723C-696.6 918.726 -696.597 918.728 -696.593 918.731C-696.588 918.735 -696.583 918.737 -696.578 918.741C-696.52 918.797 -696.456 918.849 -696.381 918.888C-696.378 918.89 -696.374 918.888 -696.372 918.89C-696.369 918.893 -696.366 918.896 -696.362 918.897L-268.354 1130.43L-369.268 1376.51C-369.357 1376.73 -369.317 1376.95 -369.197 1377.13C-369.188 1377.15 -369.192 1377.16 -369.183 1377.18C-369.171 1377.19 -369.152 1377.2 -369.14 1377.21C-369.081 1377.28 -369.008 1377.34 -368.922 1377.39C-368.893 1377.41 -368.87 1377.43 -368.839 1377.44C-368.825 1377.45 -368.816 1377.46 -368.802 1377.46C-368.689 1377.5 -368.57 1377.53 -368.453 1377.53C-368.437 1377.53 -368.422 1377.53 -368.408 1377.52L-9.99212 1360.94C-9.99212 1360.94 -9.99037 1360.94 -9.99037 1360.94C-9.97298 1360.94 -9.95735 1360.94 -9.93996 1360.94L636.639 1296.55L1650.63 1319.16C1650.64 1319.16 1650.65 1319.16 1650.65 1319.16C1650.78 1319.16 1650.89 1319.13 1651 1319.09C1651.02 1319.08 1651.04 1319.07 1651.06 1319.06C1651.08 1319.05 1651.11 1319.03 1651.13 1319.02C1651.19 1318.98 1651.24 1318.95 1651.29 1318.9C1651.3 1318.89 1651.32 1318.89 1651.33 1318.87C1651.34 1318.86 1651.34 1318.84 1651.35 1318.83C1651.36 1318.82 1651.36 1318.82 1651.36 1318.81C1651.38 1318.8 1651.4 1318.79 1651.41 1318.78L2040.97 729.232C2040.99 729.208 2040.99 729.181 2041 729.156C2041.01 729.135 2041.02 729.117 2041.03 729.096C2041.03 729.087 2041.04 729.081 2041.04 729.073ZM-267.438 1129.14L-689.63 920.48L-614.466 937.879L-167.387 1041.37L-205.051 1074.41L-267.438 1129.14ZM336.722 1162.65L-2.55233 1355.04L366.198 1049.85L340.417 1148.51L336.722 1162.65ZM1101.77 1240.21L973.264 919.486L1034.8 931.638L1519.17 1027.29L1101.77 1240.21ZM366.528 1047.48L-9.15059 1358.41L-3.50512 613C-2.14027 612.893 -0.851939 612.544 0.276456 611.959L317.423 989.09L366.528 1047.48ZM709.106 501.961C712.81 502.163 716.127 500.38 717.701 497.665L910.832 563.068C910.828 563.076 910.825 563.083 910.821 563.092L589.112 513.889C589.116 513.851 589.13 513.818 589.133 513.78C589.159 513.425 589.116 513.082 589.088 512.737L701.024 496.181C702.008 499.331 705.161 501.746 709.106 501.961ZM1532.56 544.188L1390.98 658.068C1389.53 656.937 1387.68 656.182 1385.58 656.067C1381.93 655.867 1378.67 657.604 1377.07 660.254L1226.42 606.771L1085.78 556.842C1085.97 556.282 1086.11 555.703 1086.16 555.095C1086.16 555.086 1086.15 555.079 1086.15 555.07L1530.79 540.525C1531 541.889 1531.65 543.133 1532.56 544.188ZM1.57526 599.329L132.453 439.556C133.747 440.33 135.27 440.842 136.95 440.934C139.283 441.062 141.446 440.381 143.134 439.197L289.481 597.874C288.001 599.135 287.012 600.83 286.812 602.755L4.60747 604.408C4.36753 602.393 3.24959 600.606 1.57526 599.329ZM1074.15 561.957L972.202 914.393L921.495 572.796C925.277 572.038 928.213 569.224 928.469 565.675C928.478 565.563 928.452 565.456 928.455 565.343L1068.34 555.958C1068.9 558.731 1071.13 561.011 1074.15 561.957ZM912.567 570.163L369.75 1044.69L578.049 520.897C578.55 521.002 579.059 521.09 579.592 521.119C583.916 521.355 587.711 518.886 588.822 515.385L901.007 563.129L910.531 564.585C910.528 564.623 910.514 564.658 910.51 564.695C910.362 566.762 911.164 568.68 912.567 570.163ZM571.479 515.232L326.37 592.945L303.832 600.092C302.469 597.612 299.684 595.814 296.312 595.63C294.292 595.519 292.406 596.021 290.836 596.922L144.384 438.13C145.398 437.078 146.081 435.791 146.347 434.36L259.077 455.071L571.244 512.426C571.228 512.552 571.183 512.669 571.175 512.797C571.114 513.643 571.249 514.453 571.479 515.232ZM4.62312 605.922L286.828 604.27C287.271 608.014 290.736 611.045 295.187 611.289C295.511 611.307 295.818 611.269 296.135 611.257L364.812 1035.27L366.339 1044.7L1.67607 611.06C3.31911 609.781 4.40927 607.973 4.62312 605.922ZM297.858 611.048C301.589 610.26 304.477 607.466 304.729 603.948C304.79 603.103 304.654 602.293 304.425 601.515L389.938 574.403L572.072 516.659C572.974 518.299 574.489 519.632 576.405 520.4L368.041 1044.36L305.993 661.278L297.858 611.048ZM913.798 571.236C914.406 571.673 915.081 572.034 915.81 572.319L636.242 1294.35L368.895 1047.59L913.798 571.236ZM918.927 573.014C919.214 573.03 919.489 572.995 919.77 572.987L971.018 918.23L639.082 1291.77L917.458 572.804C917.936 572.901 918.419 572.987 918.927 573.014ZM973.344 916.643L1075.84 562.324C1076.1 562.357 1076.35 562.421 1076.62 562.434C1080.27 562.634 1083.53 560.897 1085.13 558.247L1376.42 661.661C1376.23 662.22 1376.09 662.8 1376.04 663.406C1375.93 664.993 1376.37 666.496 1377.22 667.78L1318.64 703.873L973.344 916.643ZM368.168 1049.13L565.783 1231.53L632.525 1293.13L338.487 1162.71L368.168 1049.13ZM1520.21 1025.94L1077.51 938.518L974.022 918.08L1378.22 669.017C1379.74 670.558 1381.94 671.588 1384.46 671.726C1385.33 671.773 1386.16 671.676 1386.97 671.52L1391.08 682.464L1520.21 1025.94ZM1017.97 464.943C1019.36 465.019 1020.69 464.789 1021.91 464.357L1072.26 548.066C1069.98 549.374 1068.38 551.551 1068.2 554.113C1068.19 554.225 1068.22 554.333 1068.21 554.445L928.33 563.831C927.998 562.181 927.068 560.715 925.736 559.584L1013.64 463.661C1014.9 464.376 1016.36 464.857 1017.97 464.943ZM309.997 405.184C313.419 405.371 316.477 403.844 318.171 401.473L571.776 510.531C571.717 510.667 571.647 510.801 571.597 510.942L146.458 432.83C146.434 432.213 146.335 431.616 146.154 431.041L302.036 399.84C303.164 402.778 306.231 404.98 309.997 405.184ZM-11.8369 609.474C-10.8823 610.752 -9.51745 611.768 -7.88485 612.387L-11.5413 622.257L-166.283 1040.05L-693.535 918.006L-11.8369 609.474ZM-164.782 1040.93L-6.23139 612.852C-5.908 612.913 -5.5811 612.963 -5.24554 612.993L-10.8771 1356.52L-16.4947 1345L-164.782 1040.93ZM971.633 920.013L1080.16 1190.88L1100.13 1240.7L638.593 1294.79L971.633 920.013ZM700.737 494.684L639.301 503.771L588.801 511.241C587.819 508.09 584.665 505.675 580.718 505.458C580.207 505.431 579.71 505.463 579.218 505.509L539.468 336.142C540.461 335.876 541.369 335.456 542.186 334.924L703.026 488.895C701.707 490.165 700.825 491.796 700.693 493.641C700.665 493.996 700.709 494.339 700.737 494.684ZM128.926 435.36C129.35 436.587 130.106 437.681 131.115 438.579L0.15999 598.445C-1.00492 597.859 -2.31936 597.464 -3.75376 597.386C-7.84311 597.163 -11.4265 599.375 -12.7461 602.575L-253.955 549.409L128.926 435.36ZM-256.754 550.356L-13.1687 604.047C-13.2086 604.274 -13.2799 604.491 -13.2973 604.726C-13.3843 605.931 -13.1269 607.079 -12.6418 608.13L-691.012 915.158L-661.008 889.952L-256.754 550.356ZM-266.534 1130.49L-169.179 1045.09L-363.491 1366.92L-266.534 1130.49ZM-343.498 1337.06L-165.792 1042.74L-75.4182 1228.04L-11.3187 1359.48L-366.965 1375.93L-343.498 1337.06ZM1103.83 1240.91L1521.07 1028.08L1649.3 1317.44L1400.02 1282.46L1103.83 1240.91ZM1521.99 1025.8L1388.62 671.048C1391.22 670.052 1393.17 668.036 1393.78 665.53L2037.74 729.369L1631.3 962.969L1521.99 1025.8ZM2034.52 727.524L1393.98 664.023C1394.02 662.211 1393.34 660.536 1392.16 659.184L1533.74 545.302C1535.19 546.433 1537.05 547.189 1539.14 547.303C1542.72 547.499 1545.91 545.828 1547.55 543.267L2034.52 727.524ZM1530.75 538.83C1530.75 538.883 1530.73 538.93 1530.72 538.983C1530.72 538.992 1530.73 539 1530.73 539.009L1086.09 553.554C1085.53 549.918 1082.1 547.014 1077.74 546.776C1076.34 546.7 1075.02 546.93 1073.8 547.362L1023.44 463.653C1025.22 462.634 1026.58 461.099 1027.18 459.252L1530.75 538.83ZM1010.2 454.236C1009.86 454.985 1009.61 455.776 1009.55 456.624C1009.38 459.001 1010.47 461.173 1012.28 462.713L958.57 521.326L924.376 558.638C923.117 557.923 921.659 557.444 920.052 557.356C919.45 557.322 918.861 557.347 918.286 557.415L875.613 399.208C877.54 398.635 879.157 397.492 880.25 396.012L1010.2 454.236ZM865.96 396.961C867.483 398.474 869.669 399.478 872.155 399.614C872.757 399.648 873.346 399.623 873.922 399.557L916.594 557.763C914.367 558.424 912.517 559.825 911.458 561.654L718.328 496.25C718.495 495.729 718.61 495.186 718.65 494.622C718.767 493.011 718.313 491.484 717.445 490.186L865.96 396.961ZM528.69 331.94C530.033 334.47 532.846 336.311 536.26 336.497C536.772 336.525 537.267 336.493 537.761 336.447L577.51 505.813C575.431 506.373 573.682 507.576 572.543 509.171L318.938 400.113C319.247 399.398 319.48 398.649 319.539 397.847C319.596 397.039 319.471 396.264 319.263 395.517L528.69 331.94ZM302.718 393.558C302.086 394.548 301.666 395.658 301.579 396.864C301.542 397.374 301.572 397.872 301.643 398.361L246.88 409.321L145.526 429.608C144.137 427.193 141.388 425.453 138.074 425.273C137.652 425.25 137.245 425.286 136.835 425.314L118.608 351.603L100.05 276.533C101.67 276.08 103.087 275.236 104.169 274.12L302.718 393.558ZM91.3009 274.864C92.7596 276.019 94.6339 276.791 96.7534 276.908C97.2976 276.938 97.8279 276.908 98.3512 276.855L101.289 288.74L135.12 425.574C131.528 426.443 128.78 429.185 128.534 432.613C128.503 433.036 128.543 433.448 128.588 433.858L-121.315 508.298L-253.313 547.615L91.3009 274.864ZM-546.404 470.951L-258.667 549.859L-524.537 773.205L-694.19 915.723L-546.404 470.951ZM-6.46783 1359.06L159.217 1265.11L337.543 1163.99L633.633 1295.32L-6.46783 1359.06ZM647.523 1295.28L1004.61 1253.42L1101.28 1242.09L1461.06 1292.56L1637.72 1317.35L647.523 1295.28ZM1650.81 1316.64L1522.58 1027.27L1637.21 961.386L2037.64 731.245L1650.81 1316.64Z" fill="#B9B9B9" fill-opacity="0.5"/>
</g>
<g opacity="0.4">
<mask id="mask1_402_2788" style="mask-type:luminance" maskUnits="userSpaceOnUse" x="0" y="0" width="1304" height="758">
<path d="M1304 0H0V758H1304V0Z" fill="white"/>
</mask>
<g mask="url(#mask1_402_2788)">
<path d="M670.181 1086.45L584.234 738.27L825.022 960.354L670.181 1086.45Z" fill="#B9B9B9" fill-opacity="0.5"/>
<path d="M584.234 738.269L746.762 702.158L825.022 960.354L584.234 738.269Z" fill="#B9B9B9" fill-opacity="0.5"/>
<path d="M662.482 512.945L584.234 738.269L746.762 702.158L662.482 512.945Z" fill="#B9B9B9" fill-opacity="0.5"/>
<path d="M844.702 765.63L746.762 702.158L825.022 960.354L844.702 765.63Z" fill="#B9B9B9" fill-opacity="0.5"/>
<path d="M584.233 738.27L452.119 855.575L670.181 1086.45L584.233 738.27Z" fill="#B9B9B9" fill-opacity="0.5"/>
<path d="M844.702 765.63L973.147 634.734L1043.05 804.748L844.702 765.63Z" fill="#B9B9B9" fill-opacity="0.5"/>
<path d="M973.147 634.734L746.762 702.158L844.702 765.63L973.147 634.734Z" fill="#B9B9B9" fill-opacity="0.5"/>
<path d="M662.482 512.945L761.581 567.174L746.762 702.158L662.482 512.945Z" fill="#B9B9B9" fill-opacity="0.5"/>
<path d="M873.683 547.961L746.762 702.158L761.581 567.174L873.683 547.961Z" fill="#B9B9B9" fill-opacity="0.5"/>
<path d="M973.147 634.734L873.683 547.961L746.762 702.158L973.147 634.734Z" fill="#B9B9B9" fill-opacity="0.5"/>
<path d="M1123.98 612.508L973.147 634.734L1043.05 804.748L1123.98 612.508Z" fill="#B9B9B9" fill-opacity="0.5"/>
<path d="M1123.98 612.508L1404.36 921.888L1043.05 804.748L1123.98 612.508Z" fill="#B9B9B9" fill-opacity="0.5"/>
<path d="M584.233 738.269L461.039 673.234L452.119 855.574L584.233 738.269Z" fill="#B9B9B9" fill-opacity="0.5"/>
<path d="M662.482 512.945L552.43 571.411L584.234 738.269L662.482 512.945Z" fill="#B9B9B9" fill-opacity="0.5"/>
<path d="M461.039 673.235L431.794 571.411L584.233 738.27L461.039 673.235Z" fill="#B9B9B9" fill-opacity="0.5"/>
<path d="M552.43 571.411H431.794L584.233 738.27L552.43 571.411Z" fill="#B9B9B9" fill-opacity="0.5"/>
<path d="M461.039 673.234L290.573 723.17L452.119 855.574L461.039 673.234Z" fill="#B9B9B9" fill-opacity="0.5"/>
<path d="M873.683 547.961H1001.22L973.147 634.734L873.683 547.961Z" fill="#B9B9B9" fill-opacity="0.5"/>
<path d="M1123.98 612.508L1341.33 675.456L1404.36 921.888L1123.98 612.508Z" fill="#B9B9B9" fill-opacity="0.5"/>
<path d="M211.874 651.423L431.794 571.411L461.039 673.235L211.874 651.423Z" fill="#B9B9B9" fill-opacity="0.5"/>
<path d="M290.573 723.17L211.874 651.422L461.039 673.235L290.573 723.17Z" fill="#B9B9B9" fill-opacity="0.5"/>
<path d="M294.375 876.25L290.573 723.17L452.119 855.574L294.375 876.25Z" fill="#B9B9B9" fill-opacity="0.5"/>
<path d="M211.874 651.422L-65.7374 738.917L290.573 723.17L211.874 651.422Z" fill="#B9B9B9" fill-opacity="0.5"/>
<path d="M294.375 876.25L-65.7374 738.917L290.573 723.17L294.375 876.25Z" fill="#B9B9B9" fill-opacity="0.5"/>
<path d="M121.741 1068.74L-65.7374 738.917L294.375 876.25L121.741 1068.74Z" fill="#B9B9B9" fill-opacity="0.5"/>
<path d="M1001.22 547.961L1123.98 612.508L973.147 634.734L1001.22 547.961Z" fill="#B9B9B9" fill-opacity="0.5"/>
<path opacity="0.1" d="M588.82 737.251L615.667 731.287L721.663 645.81L710.913 621.677L591.197 718.217L585.631 734.246L588.82 737.251Z" fill="#B9B9B9" fill-opacity="0.5"/>
<path opacity="0.1" d="M596.968 701.603L706.994 612.876L677.609 546.908L640.215 577.063L596.968 701.603Z" fill="#B9B9B9" fill-opacity="0.5"/>
<path opacity="0.1" d="M172.176 829.648L168.64 728.558L93.2271 731.892L95.6247 800.454L172.176 829.648Z" fill="#B9B9B9" fill-opacity="0.5"/>
<path opacity="0.1" d="M206.289 726.895L178.701 728.114L182.387 833.543L210.392 844.223L206.289 726.895Z" fill="#B9B9B9" fill-opacity="0.5"/>
<path opacity="0.1" d="M1181.08 675.515L1044.26 801.894L1043.05 804.748L1109.44 826.27L1222.81 721.556L1181.08 675.515Z" fill="#B9B9B9" fill-opacity="0.5"/>
<path opacity="0.1" d="M1243.64 744.54L1228.37 727.697L1118.48 829.201L1143.27 837.24L1243.64 744.54Z" fill="#B9B9B9" fill-opacity="0.5"/>
</g>
</g>
<mask id="mask2_402_2788" style="mask-type:luminance" maskUnits="userSpaceOnUse" x="4" y="112" width="1304" height="758">
<path d="M1308 112H4V870H1308V112Z" fill="white"/>
</mask>
<g mask="url(#mask2_402_2788)">
<g opacity="0.4">
<path d="M704.9 265.828L783.148 40.5039L620.62 76.615L704.9 265.828Z" fill="#B9B9B9" fill-opacity="0.5"/>
<path d="M522.68 13.1432L394.235 144.039L324.328 -25.9741L522.68 13.1432Z" fill="#B9B9B9" fill-opacity="0.5"/>
<path d="M394.235 144.04L620.62 76.6154L522.681 13.1436L394.235 144.04Z" fill="#B9B9B9" fill-opacity="0.5"/>
<path d="M704.9 265.829L605.799 211.6L620.62 76.6152L704.9 265.829Z" fill="#B9B9B9" fill-opacity="0.5"/>
<path d="M493.699 230.812L620.62 76.6152L605.799 211.6L493.699 230.812Z" fill="#B9B9B9" fill-opacity="0.5"/>
<path d="M394.235 144.039L493.699 230.812L620.62 76.6152L394.235 144.039Z" fill="#B9B9B9" fill-opacity="0.5"/>
<path d="M243.397 166.267L394.235 144.039L324.328 -25.9741L243.397 166.267Z" fill="#B9B9B9" fill-opacity="0.5"/>
<path d="M243.397 166.267L-36.9788 -143.114L324.328 -25.974L243.397 166.267Z" fill="#B9B9B9" fill-opacity="0.5"/>
<path d="M704.9 265.828L814.951 207.362L783.149 40.5039L704.9 265.828Z" fill="#B9B9B9" fill-opacity="0.5"/>
<path d="M906.343 105.539L935.588 207.362L783.148 40.5039L906.343 105.539Z" fill="#B9B9B9" fill-opacity="0.5"/>
<path d="M814.95 207.362H935.588L783.148 40.5039L814.95 207.362Z" fill="#B9B9B9" fill-opacity="0.5"/>
<path d="M493.698 230.812H366.166L394.235 144.04L493.698 230.812Z" fill="#B9B9B9" fill-opacity="0.5"/>
<path d="M243.397 166.267L26.0514 103.318L-36.9788 -143.114L243.397 166.267Z" fill="#B9B9B9" fill-opacity="0.5"/>
<path d="M1155.51 127.353L935.588 207.363L906.343 105.539L1155.51 127.353Z" fill="#B9B9B9" fill-opacity="0.5"/>
<path d="M1076.81 55.605L1155.51 127.353L906.343 105.539L1076.81 55.605Z" fill="#B9B9B9" fill-opacity="0.5"/>
<path d="M1155.51 127.353L1433.12 39.8569L1076.81 55.6051L1155.51 127.353Z" fill="#B9B9B9" fill-opacity="0.5"/>
<path d="M366.166 230.812L243.397 166.267L394.235 144.04L366.166 230.812Z" fill="#B9B9B9" fill-opacity="0.5"/>
<path opacity="0.1" d="M778.562 41.5229L751.715 47.4884L645.719 132.965L656.468 157.098L776.184 60.5578L781.751 44.5292L778.562 41.5229Z" fill="#B9B9B9" fill-opacity="0.5"/>
<path opacity="0.1" d="M770.415 77.1704L660.388 165.897L689.772 231.866L727.167 201.711L770.415 77.1704Z" fill="#B9B9B9" fill-opacity="0.5"/>
</g>
</g>
<mask id="mask3_402_2788" style="mask-type:luminance" maskUnits="userSpaceOnUse" x="0" y="0" width="1304" height="758">
<path d="M1304 0H0V758H1304V0Z" fill="white"/>
</mask>
<g mask="url(#mask3_402_2788)">
<path opacity="0.6" d="M1724.72 1011.57C1724.72 1011.54 1724.72 1011.51 1724.71 1011.48C1724.71 1011.45 1724.72 1011.42 1724.71 1011.4L1634.28 657.849C1634.23 657.649 1634.09 657.476 1633.89 657.37C1633.69 657.262 1633.45 657.229 1633.22 657.277L1404.64 706.508L1150.91 478.888C1151.87 477.846 1152.46 476.541 1152.46 475.102C1152.46 471.74 1149.34 469.013 1145.48 469.013C1141.63 469.013 1138.5 471.738 1138.5 475.102C1138.5 475.98 1138.72 476.81 1139.1 477.563L978.612 561.704C977.332 560.29 975.373 559.365 973.147 559.365C970.562 559.365 968.329 560.605 967.121 562.426L808.386 504.298C808.553 503.776 808.671 503.235 808.671 502.666C808.671 499.304 805.545 496.578 801.687 496.578C797.829 496.578 794.703 499.304 794.703 502.666C794.703 504.04 795.243 505.292 796.121 506.311L662.926 618.804C661.729 617.966 660.231 617.444 658.577 617.444C656.715 617.444 655.032 618.09 653.78 619.126L543.862 540.58C544.54 539.642 544.948 538.538 544.948 537.346C544.948 533.984 541.822 531.257 537.964 531.257C534.108 531.257 530.982 533.982 530.982 537.346C530.982 537.947 531.112 538.514 531.296 539.061L427.348 578.68C426.13 576.9 423.922 575.697 421.371 575.697C417.534 575.697 414.425 578.397 414.394 581.735L19.8033 622.079C19.0522 619.423 16.3207 617.444 13.0433 617.444C9.18697 617.444 6.05912 620.17 6.05912 623.534C6.05912 623.995 6.12867 624.439 6.23994 624.871L-385.532 748.346C-385.61 748.371 -385.676 748.411 -385.742 748.452C-385.755 748.46 -385.767 748.463 -385.779 748.471L-385.784 748.474C-385.788 748.475 -385.791 748.475 -385.795 748.477L-385.798 748.48C-385.833 748.504 -385.854 748.537 -385.883 748.566C-385.92 748.604 -385.962 748.637 -385.989 748.68C-386.008 748.709 -386.015 748.74 -386.031 748.771C-386.036 748.783 -386.042 748.794 -386.047 748.806C-386.052 748.818 -386.068 748.824 -386.071 748.836C-386.073 748.844 -386.068 748.851 -386.071 748.859C-386.078 748.878 -386.087 748.898 -386.09 748.918C-386.097 748.95 -386.094 748.983 -386.095 749.015C-386.099 749.069 -386.102 749.124 -386.092 749.179C-386.09 749.188 -386.094 749.197 -386.092 749.207C-386.087 749.227 -386.073 749.244 -386.068 749.263C-386.061 749.283 -386.054 749.3 -386.045 749.318C-386.035 749.342 -386.033 749.37 -386.019 749.394L-117.047 1222.59C-117.04 1222.6 -117.025 1222.6 -117.018 1222.62C-117.011 1222.63 -117.004 1222.63 -116.997 1222.64C-116.986 1222.66 -116.988 1222.68 -116.976 1222.69C-116.965 1222.71 -116.946 1222.71 -116.934 1222.72C-116.885 1222.78 -116.828 1222.82 -116.764 1222.86C-116.739 1222.87 -116.72 1222.89 -116.696 1222.9C-116.679 1222.91 -116.663 1222.92 -116.646 1222.93C-116.539 1222.98 -116.425 1223.01 -116.3 1223.01L670.471 1248.41L1167.76 1325.65C1167.77 1325.65 1167.79 1325.65 1167.8 1325.65C1167.8 1325.65 1167.81 1325.66 1167.81 1325.66L1444.55 1353.67C1444.58 1353.67 1444.61 1353.67 1444.65 1353.67C1444.75 1353.67 1444.85 1353.66 1444.95 1353.63C1444.97 1353.62 1444.98 1353.61 1445 1353.6C1445.04 1353.59 1445.07 1353.57 1445.1 1353.55C1445.18 1353.51 1445.24 1353.46 1445.3 1353.4C1445.31 1353.39 1445.34 1353.38 1445.35 1353.37C1445.36 1353.35 1445.36 1353.33 1445.37 1353.32C1445.44 1353.23 1445.49 1353.12 1445.51 1353.01C1445.51 1353 1445.51 1353 1445.51 1352.99C1445.52 1352.9 1445.52 1352.8 1445.48 1352.71L1381.05 1157.94L1724.23 1012.25L1724.23 1012.25L1724.24 1012.25C1724.25 1012.24 1724.25 1012.24 1724.25 1012.24C1724.26 1012.24 1724.26 1012.24 1724.27 1012.24C1724.35 1012.2 1724.41 1012.15 1724.48 1012.1C1724.48 1012.1 1724.48 1012.09 1724.49 1012.09C1724.49 1012.09 1724.49 1012.08 1724.5 1012.08C1724.51 1012.07 1724.51 1012.06 1724.52 1012.05C1724.52 1012.05 1724.53 1012.05 1724.54 1012.04C1724.55 1012.02 1724.56 1012 1724.57 1011.98C1724.6 1011.95 1724.64 1011.91 1724.66 1011.87C1724.66 1011.86 1724.67 1011.84 1724.67 1011.83C1724.69 1011.8 1724.69 1011.77 1724.7 1011.74C1724.7 1011.73 1724.71 1011.73 1724.71 1011.72C1724.71 1011.71 1724.72 1011.7 1724.72 1011.69C1724.72 1011.69 1724.72 1011.68 1724.72 1011.68C1724.72 1011.66 1724.73 1011.64 1724.73 1011.62C1724.72 1011.6 1724.72 1011.58 1724.72 1011.57ZM1144.45 481.101C1144.79 481.145 1145.13 481.192 1145.48 481.192C1147.06 481.192 1148.5 480.719 1149.67 479.949L1400.81 705.249L1112.1 601.256C1112.14 600.996 1112.2 600.738 1112.2 600.47C1112.2 597.864 1110.31 595.658 1107.67 594.789L1137.15 503.662L1144.45 481.101ZM19.8381 624.891L363.545 654.982C363.555 655.341 363.588 655.694 363.666 656.036L132.217 723.831C131.087 721.794 128.717 720.378 125.947 720.378C124.388 720.378 122.964 720.838 121.802 721.59L18.4384 627.354C19.1026 626.645 19.5964 625.816 19.8381 624.891ZM908.693 1157.07L674.818 1245.22L892.108 1068.27L901.705 1119.65L908.693 1157.07ZM341.045 1130.95L431.975 942.723L668.648 1246.55L314.819 1185.24L341.045 1130.95ZM313.21 1184.66L272.866 1161.01L2.31229 1002.41L430.382 942.109L412.944 978.205L313.21 1184.66ZM374.834 650.082L418.525 587.338C419.396 587.679 420.356 587.878 421.373 587.878C422.552 587.878 423.647 587.599 424.621 587.149L487.404 665.206C486.432 665.976 485.721 666.975 485.366 668.112L377.484 654.918C377.484 654.888 377.494 654.861 377.494 654.83C377.494 652.897 376.442 651.196 374.834 650.082ZM973.147 571.543C976.006 571.543 978.455 570.042 979.537 567.897L1098.58 598.669C1098.46 599.004 1098.37 599.348 1098.32 599.706L764.552 642.234L967.118 568.471C968.321 570.298 970.557 571.543 973.147 571.543ZM370.51 660.919C370.651 660.919 370.783 660.89 370.92 660.882L421.416 896.793L430.508 939.267L374.606 900.03L131.874 729.656C132.533 728.726 132.931 727.641 132.931 726.469C132.931 726.057 132.881 725.653 132.792 725.264L364.242 657.467C365.372 659.503 367.742 660.919 370.51 660.919ZM1.37515 1001L124.2 732.34C124.761 732.468 125.34 732.557 125.949 732.557C127.834 732.557 129.536 731.899 130.793 730.841L429.729 940.666L93.8496 987.976L1.37515 1001ZM431.81 937.084L372.629 660.602C374.87 659.976 376.604 658.407 377.223 656.416L435.405 663.532L485.105 669.611C485.105 669.642 485.095 669.669 485.095 669.699C485.095 672.399 487.122 674.661 489.913 675.46L431.824 937.019L431.81 937.084ZM763.824 646.956L899.412 698.524L966.478 724.033C966.293 724.578 966.165 725.145 966.165 725.743C966.165 728.418 968.155 730.665 970.906 731.482L892.577 1063.52L760.538 649.471C761.924 648.966 763.062 648.072 763.824 646.956ZM972.608 731.786C972.789 731.798 972.963 731.833 973.147 731.833C976.543 731.833 979.366 729.718 979.994 726.918L990.137 727.532L1198.56 740.145C1198.65 741.612 1199.33 742.937 1200.41 743.945L894.252 1063.95L972.608 731.786ZM1198.66 738.63L980.091 725.403C980.003 724.033 979.399 722.794 978.44 721.813L1100.67 605.059C1101.89 605.98 1103.47 606.559 1105.21 606.559C1106.45 606.559 1107.59 606.255 1108.6 605.763L1201.12 735.103C1199.88 735.983 1198.98 737.208 1198.66 738.63ZM1099.48 603.94L977.167 720.778C976.028 720.076 974.646 719.654 973.147 719.654C970.595 719.654 968.387 720.861 967.168 722.643L764.514 645.566C764.698 645.02 764.827 644.455 764.827 643.858C764.827 643.817 764.815 643.777 764.813 643.735L1098.32 601.24C1098.46 602.233 1098.86 603.156 1099.48 603.94ZM757.845 649.944C758.191 649.944 758.523 649.897 758.855 649.855L890.849 1063.76L497.292 673.715C498.361 672.662 499.03 671.296 499.055 669.783L751.073 645.277C751.808 647.951 754.552 649.944 757.845 649.944ZM496.003 674.734L891.492 1066.7L671.023 1246.24L494.718 675.331C495.172 675.169 495.603 674.972 496.003 674.734ZM668.376 1243.5L432.718 940.975L475.784 747.059L491.622 675.748C491.777 675.757 491.923 675.788 492.079 675.788C492.406 675.788 492.719 675.742 493.034 675.704L508.972 727.316L668.376 1243.5ZM893.861 1066.72L1201.74 744.92C1202.49 745.34 1203.34 745.637 1204.25 745.783L1167.16 1323.08L893.861 1066.72ZM1404.05 708.172L1719.17 1008.22L1211.88 742.264C1212.27 741.511 1212.49 740.681 1212.49 739.805C1212.49 739.681 1212.46 739.566 1212.45 739.443L1244.02 734.29L1404.05 708.172ZM1212.12 737.953C1211.22 735.501 1208.61 733.715 1205.5 733.715C1204.46 733.715 1203.48 733.931 1202.58 734.29L1110.01 604.875C1110.73 604.279 1111.31 603.559 1111.68 602.745L1401.32 707.075L1212.12 737.953ZM652.254 626.082C653.363 628.168 655.768 629.622 658.577 629.622C661.578 629.622 664.115 627.964 665.102 625.647L750.934 643.218C750.911 643.401 750.873 643.582 750.869 643.77L661.87 652.424L500.736 668.092L589.357 643.521L652.254 626.082ZM-382.799 749.712L119.086 727.532C119.458 729.369 120.776 730.902 122.585 731.775L-0.387846 1000.76L-111.629 927.73L-382.799 749.712ZM286.873 1171.04L311.103 1185.25L-114.844 1221.37L0.361518 1003.09L286.873 1171.04ZM1160.81 1319.36L910.46 1157.11L894.02 1069.1L1160.81 1319.36ZM1169.01 1321.29L1205.99 745.849C1206.11 745.842 1206.24 745.83 1206.37 745.816L1243.23 871.788L1305.36 1084.11L1239.47 1198.73L1169.01 1321.29ZM1306.92 1083.32L1208.06 745.46C1209.22 745.061 1210.21 744.394 1210.97 743.554L1721.49 1011.2L1496.94 1050.27L1306.92 1083.32ZM799.039 508.297L758.808 637.851C758.49 637.813 758.175 637.766 757.845 637.766C754.845 637.766 752.309 639.425 751.319 641.74L665.488 624.171C665.514 623.958 665.561 623.752 665.561 623.534C665.561 622.161 665.021 620.908 664.143 619.89L797.339 507.396C797.855 507.759 798.415 508.074 799.039 508.297ZM651.722 624.639L625.6 631.883L498.403 667.149C497.693 665.815 496.455 664.742 494.913 664.143L536.798 543.336C537.178 543.392 537.564 543.439 537.964 543.439C539.826 543.439 541.508 542.793 542.759 541.758L652.68 620.302C652.002 621.24 651.593 622.344 651.593 623.536C651.595 623.913 651.645 624.28 651.722 624.639ZM1253.88 1177.03L1306.23 1085.97L1443.22 1352.01L1169.24 1324.27L1253.88 1177.03ZM1309.45 1088.5L1379.23 1157.91L1440.4 1342.82L1309.45 1088.5ZM1722.3 1008.96L1405.99 707.778L1632.77 658.936L1722.3 1008.96ZM1140.02 478.853C1140.74 479.655 1141.67 480.31 1142.76 480.713L1130.8 517.694L1105.97 594.447C1105.72 594.422 1105.47 594.38 1105.21 594.38C1102.7 594.38 1100.52 595.543 1099.29 597.272L980.017 566.438C980.077 566.116 980.13 565.791 980.13 565.453C980.13 564.577 979.909 563.748 979.526 562.994L1140.02 478.853ZM966.448 563.823C966.281 564.345 966.163 564.885 966.163 565.453C966.163 566.018 966.279 566.554 966.445 567.074L763.876 640.838C763.108 639.672 761.932 638.741 760.493 638.226L800.724 508.671C801.042 508.709 801.358 508.756 801.689 508.756C804.274 508.756 806.506 507.518 807.713 505.695L966.448 563.823ZM531.988 540.454C532.724 541.528 533.811 542.392 535.132 542.904L515.102 600.676L493.247 663.713C492.867 663.656 492.481 663.609 492.081 663.609C490.902 663.609 489.807 663.888 488.833 664.339L426.05 586.281C427.456 585.167 428.357 583.575 428.357 581.788C428.357 581.188 428.227 580.621 428.042 580.073L531.988 540.454ZM414.611 583.243C414.987 584.57 415.859 585.711 417.047 586.536L373.356 649.28C372.485 648.939 371.525 648.741 370.51 648.741C367.189 648.741 364.423 650.766 363.715 653.474L21.0777 623.476L414.611 583.243ZM6.85021 626.292C8.00643 628.261 10.331 629.624 13.0433 629.624C14.6012 629.624 16.0252 629.163 17.1883 628.411L57.8262 665.461L120.552 722.647C119.679 723.582 119.126 724.739 119.017 726.016L-379.461 748.046L6.85021 626.292ZM-1.08333 1002.2L-116.296 1220.49L-382.828 751.589L-1.08333 1002.2ZM-103.282 1221.91L313.56 1186.56L659.7 1246.55L-103.282 1221.91ZM673.559 1247.35L909.545 1158.4L1003.34 1219.19L1164.43 1323.59L673.559 1247.35ZM1380.22 1156.6L1307.92 1084.69L1717.41 1013.46L1380.22 1156.6Z" fill="#B9B9B9" fill-opacity="0.5"/>
</g>
</svg>
