<svg width="196" height="70" viewBox="0 0 196 70" fill="none" xmlns="http://www.w3.org/2000/svg">
<path d="M16.0883 12H0.988281V-4.76837e-06H44.7883V12H29.6883V70H16.0883V12ZM50.5891 70V-4.76837e-06H86.4891V12H64.2891V28.7H84.0891V40.3H64.2891V58.4H86.8891V70H50.5891ZM124.432 70L122.332 58.9H106.532L104.432 70H90.832L104.332 -4.76837e-06H125.032L137.832 70H124.432ZM114.232 13L110.332 36.3L108.132 48.2H120.632L118.332 36.3L114.432 13H114.232ZM169.155 38H168.755H169.155L174.455 16.1L178.755 -4.76837e-06H191.255L195.755 70H182.655L180.755 31.8H180.255L173.055 60H164.855L157.655 31.8H157.155L155.255 70H142.155L146.655 -4.76837e-06H159.155L163.455 16.1L168.755 38H169.155Z" fill="#D9D9D9"/>
</svg>
