<svg width="217" height="55" viewBox="0 0 217 55" fill="none" xmlns="http://www.w3.org/2000/svg">
<path d="M4.22498 1.67255L8.97498 13.2975L13.7 1.67255H16.975V18.6725H14.1V12.1725L14.475 6.22255L10.25 16.6725H7.57498L3.44998 6.19755L3.82498 12.1725V18.6725H0.949976V1.67255H4.22498ZM30.9025 18.7975C30.0525 18.7975 29.3692 18.6225 28.8525 18.2725C28.3525 17.9225 27.9858 17.4892 27.7525 16.9725C27.0358 17.6392 26.3442 18.1309 25.6775 18.4475C25.0108 18.7642 24.2942 18.9225 23.5275 18.9225C22.4108 18.9225 21.5858 18.5642 21.0525 17.8475C20.5358 17.1309 20.2775 16.2225 20.2775 15.1225C20.2775 14.3892 20.4108 13.7475 20.6775 13.1975C20.9608 12.6309 21.4192 12.1892 22.0525 11.8725C22.6858 11.5559 23.5525 11.3975 24.6525 11.3975C25.0858 11.3975 25.5358 11.4309 26.0025 11.4975C26.4692 11.5475 26.9358 11.6142 27.4025 11.6975V10.2225C27.4025 9.52255 27.2108 9.04755 26.8275 8.79755C26.4442 8.53088 25.9275 8.39755 25.2775 8.39755C24.7775 8.39755 24.2275 8.46421 23.6275 8.59755C23.0442 8.73088 22.4108 8.93921 21.7275 9.22255L20.9025 6.77255C22.5858 6.08921 24.1108 5.74755 25.4775 5.74755C26.7108 5.74755 27.6608 5.95588 28.3275 6.37255C29.0108 6.78921 29.4858 7.33921 29.7525 8.02255C30.0192 8.70588 30.1525 9.43921 30.1525 10.2225V15.0975C30.1525 15.3475 30.2192 15.5892 30.3525 15.8225C30.5025 16.0392 30.7858 16.1475 31.2025 16.1475H31.4775V18.7975H30.9025ZM23.0525 15.0725C23.0525 15.5225 23.1525 15.8809 23.3525 16.1475C23.5525 16.3975 23.8442 16.5225 24.2275 16.5225C24.6108 16.5225 25.0442 16.4225 25.5275 16.2225C26.0108 16.0225 26.6358 15.5559 27.4025 14.8225V13.7475C26.5358 13.5975 25.6858 13.5225 24.8525 13.5225C24.2025 13.5225 23.7358 13.6559 23.4525 13.9225C23.1858 14.1892 23.0525 14.5725 23.0525 15.0725ZM41.5984 18.2475C41.1651 18.4475 40.6651 18.6059 40.0984 18.7225C39.5317 18.8559 38.9567 18.9225 38.3734 18.9225C37.4067 18.9225 36.6317 18.7225 36.0484 18.3225C35.4651 17.9225 35.0401 17.3642 34.7734 16.6475C34.5234 15.9309 34.3984 15.1142 34.3984 14.1975V8.49755H32.3484V5.99755H34.3984V2.69754H37.2734V5.99755H41.2234V8.49755H37.2734V14.1975C37.2734 14.9642 37.4151 15.4975 37.6984 15.7975C37.9984 16.0809 38.4234 16.2225 38.9734 16.2225C39.2401 16.2225 39.5234 16.1975 39.8234 16.1475C40.1401 16.0809 40.4901 15.9725 40.8734 15.8225L41.5984 18.2475ZM53.5349 17.9475C52.6683 18.2975 51.8516 18.5475 51.0849 18.6975C50.3183 18.8475 49.5933 18.9225 48.9099 18.9225C47.0266 18.9225 45.6016 18.3892 44.6349 17.3225C43.6683 16.2559 43.1849 14.8392 43.1849 13.0725V11.5725C43.1849 10.3892 43.4016 9.36421 43.8349 8.49755C44.2683 7.63088 44.8849 6.95588 45.6849 6.47255C46.4849 5.98921 47.4266 5.74755 48.5099 5.74755C49.3933 5.74755 50.2183 5.93088 50.9849 6.29755C51.7683 6.64755 52.4016 7.20588 52.8849 7.97255C53.3849 8.72255 53.6349 9.68921 53.6349 10.8725C53.6349 11.2225 53.6099 11.5975 53.5599 11.9975C53.5099 12.3809 53.4266 12.7892 53.3099 13.2225H45.9599C45.9933 14.2559 46.2516 15.0309 46.7349 15.5475C47.2183 16.0642 47.9933 16.3225 49.0599 16.3225C49.6266 16.3225 50.2099 16.2559 50.8099 16.1225C51.4266 15.9892 52.0599 15.7892 52.7099 15.5225L53.5349 17.9475ZM48.5099 8.17255C47.7433 8.17255 47.1433 8.42255 46.7099 8.92255C46.2933 9.40588 46.0516 10.1059 45.9849 11.0225H50.7849C50.8016 10.9392 50.8099 10.8642 50.8099 10.7975C50.8099 10.7142 50.8099 10.6392 50.8099 10.5725C50.8099 9.77255 50.5849 9.17255 50.1349 8.77255C49.6849 8.37255 49.1433 8.17255 48.5099 8.17255ZM64.097 8.62255C63.3137 8.62255 62.5637 8.74755 61.847 8.99755C61.147 9.23088 60.472 9.61421 59.822 10.1475V18.6725H56.947V5.99755H59.672V7.94755C60.522 7.14755 61.2804 6.58088 61.947 6.24755C62.6137 5.91421 63.3304 5.74755 64.097 5.74755V8.62255ZM69.565 3.59755H66.54V0.622545H69.565V3.59755ZM69.49 18.6725H66.615V5.99755H69.49V18.6725ZM83.051 18.7975C82.201 18.7975 81.5176 18.6225 81.001 18.2725C80.501 17.9225 80.1343 17.4892 79.901 16.9725C79.1843 17.6392 78.4926 18.1309 77.826 18.4475C77.1593 18.7642 76.4426 18.9225 75.676 18.9225C74.5593 18.9225 73.7343 18.5642 73.201 17.8475C72.6843 17.1309 72.426 16.2225 72.426 15.1225C72.426 14.3892 72.5593 13.7475 72.826 13.1975C73.1093 12.6309 73.5676 12.1892 74.201 11.8725C74.8343 11.5559 75.701 11.3975 76.801 11.3975C77.2343 11.3975 77.6843 11.4309 78.151 11.4975C78.6176 11.5475 79.0843 11.6142 79.551 11.6975V10.2225C79.551 9.52255 79.3593 9.04755 78.976 8.79755C78.5926 8.53088 78.076 8.39755 77.426 8.39755C76.926 8.39755 76.376 8.46421 75.776 8.59755C75.1926 8.73088 74.5593 8.93921 73.876 9.22255L73.051 6.77255C74.7343 6.08921 76.2593 5.74755 77.626 5.74755C78.8593 5.74755 79.8093 5.95588 80.476 6.37255C81.1593 6.78921 81.6343 7.33921 81.901 8.02255C82.1676 8.70588 82.301 9.43921 82.301 10.2225V15.0975C82.301 15.3475 82.3676 15.5892 82.501 15.8225C82.651 16.0392 82.9343 16.1475 83.351 16.1475H83.626V18.7975H83.051ZM75.201 15.0725C75.201 15.5225 75.301 15.8809 75.501 16.1475C75.701 16.3975 75.9926 16.5225 76.376 16.5225C76.7593 16.5225 77.1926 16.4225 77.676 16.2225C78.1593 16.0225 78.7843 15.5559 79.551 14.8225V13.7475C78.6843 13.5975 77.8343 13.5225 77.001 13.5225C76.351 13.5225 75.8843 13.6559 75.601 13.9225C75.3343 14.1892 75.201 14.5725 75.201 15.0725ZM86.0469 15.0975V0.172546H88.9219V15.0975C88.9219 15.3475 88.9802 15.5892 89.0969 15.8225C89.2302 16.0392 89.4802 16.1475 89.8469 16.1475H90.2469V18.7975H89.5469C88.5969 18.7975 87.8719 18.6142 87.3719 18.2475C86.8719 17.8809 86.5219 17.4142 86.3219 16.8475C86.1385 16.2809 86.0469 15.6975 86.0469 15.0975ZM102.111 16.1475C104.044 16.1475 105.011 15.4309 105.011 13.9975C105.011 13.4142 104.861 12.9559 104.561 12.6225C104.278 12.2892 103.744 11.9975 102.961 11.7475L100.911 11.0725C98.4609 10.2725 97.2359 8.66421 97.2359 6.24755C97.2359 4.84755 97.6692 3.69755 98.5359 2.79755C99.4192 1.88088 100.794 1.42254 102.661 1.42254C103.444 1.42254 104.219 1.51421 104.986 1.69755C105.753 1.86421 106.569 2.13921 107.436 2.52255L106.511 5.09755C105.711 4.78088 105.028 4.55588 104.461 4.42255C103.911 4.27255 103.344 4.19754 102.761 4.19754C101.994 4.19754 101.386 4.33921 100.936 4.62255C100.503 4.88921 100.286 5.38088 100.286 6.09755C100.286 6.63088 100.436 7.07255 100.736 7.42255C101.053 7.75588 101.569 8.03921 102.286 8.27255L104.336 8.94755C105.569 9.36421 106.494 9.97255 107.111 10.7725C107.744 11.5559 108.061 12.5975 108.061 13.8975C108.061 15.3975 107.586 16.6142 106.636 17.5475C105.686 18.4642 104.194 18.9225 102.161 18.9225C101.361 18.9225 100.528 18.8309 99.6609 18.6475C98.8109 18.4475 97.8776 18.1142 96.8609 17.6475L97.7859 15.0725C98.7192 15.4725 99.5109 15.7559 100.161 15.9225C100.828 16.0725 101.478 16.1475 102.111 16.1475ZM113.175 11.5975V13.0725C113.175 14.1392 113.367 14.9392 113.75 15.4725C114.134 16.0059 114.75 16.2725 115.6 16.2725C116.017 16.2725 116.484 16.2225 117 16.1225C117.534 16.0059 118.109 15.8309 118.725 15.5975L119.55 18.0225C118.8 18.3225 118.092 18.5475 117.425 18.6975C116.759 18.8475 116.1 18.9225 115.45 18.9225C113.784 18.9225 112.509 18.3892 111.625 17.3225C110.742 16.2559 110.3 14.8392 110.3 13.0725V11.5975C110.3 9.81421 110.742 8.39755 111.625 7.34755C112.509 6.28088 113.784 5.74755 115.45 5.74755C116.084 5.74755 116.725 5.82255 117.375 5.97255C118.025 6.12255 118.709 6.33921 119.425 6.62255L118.6 9.09755C117.4 8.63088 116.4 8.39755 115.6 8.39755C114.75 8.39755 114.134 8.66421 113.75 9.19755C113.367 9.71421 113.175 10.5142 113.175 11.5975ZM125.131 3.59755H122.106V0.622545H125.131V3.59755ZM125.056 18.6725H122.181V5.99755H125.056V18.6725ZM138.642 17.9475C137.776 18.2975 136.959 18.5475 136.192 18.6975C135.426 18.8475 134.701 18.9225 134.017 18.9225C132.134 18.9225 130.709 18.3892 129.742 17.3225C128.776 16.2559 128.292 14.8392 128.292 13.0725V11.5725C128.292 10.3892 128.509 9.36421 128.942 8.49755C129.376 7.63088 129.992 6.95588 130.792 6.47255C131.592 5.98921 132.534 5.74755 133.617 5.74755C134.501 5.74755 135.326 5.93088 136.092 6.29755C136.876 6.64755 137.509 7.20588 137.992 7.97255C138.492 8.72255 138.742 9.68921 138.742 10.8725C138.742 11.2225 138.717 11.5975 138.667 11.9975C138.617 12.3809 138.534 12.7892 138.417 13.2225H131.067C131.101 14.2559 131.359 15.0309 131.842 15.5475C132.326 16.0642 133.101 16.3225 134.167 16.3225C134.734 16.3225 135.317 16.2559 135.917 16.1225C136.534 15.9892 137.167 15.7892 137.817 15.5225L138.642 17.9475ZM133.617 8.17255C132.851 8.17255 132.251 8.42255 131.817 8.92255C131.401 9.40588 131.159 10.1059 131.092 11.0225H135.892C135.909 10.9392 135.917 10.8642 135.917 10.7975C135.917 10.7142 135.917 10.6392 135.917 10.5725C135.917 9.77255 135.692 9.17255 135.242 8.77255C134.792 8.37255 134.251 8.17255 133.617 8.17255ZM148.254 8.42255C147.838 8.42255 147.363 8.52255 146.829 8.72255C146.296 8.92255 145.663 9.31421 144.929 9.89755V18.6725H142.054V5.99755H144.779V7.69755C145.563 7.01421 146.304 6.52255 147.004 6.22255C147.704 5.90588 148.413 5.74755 149.129 5.74755C150.346 5.74755 151.271 6.13921 151.904 6.92255C152.538 7.68921 152.854 8.77255 152.854 10.1725V18.6725H149.979V10.5225C149.979 9.12255 149.404 8.42255 148.254 8.42255ZM158.854 11.5975V13.0725C158.854 14.1392 159.046 14.9392 159.429 15.4725C159.812 16.0059 160.429 16.2725 161.279 16.2725C161.696 16.2725 162.162 16.2225 162.679 16.1225C163.212 16.0059 163.787 15.8309 164.404 15.5975L165.229 18.0225C164.479 18.3225 163.771 18.5475 163.104 18.6975C162.437 18.8475 161.779 18.9225 161.129 18.9225C159.462 18.9225 158.187 18.3892 157.304 17.3225C156.421 16.2559 155.979 14.8392 155.979 13.0725V11.5975C155.979 9.81421 156.421 8.39755 157.304 7.34755C158.187 6.28088 159.462 5.74755 161.129 5.74755C161.762 5.74755 162.404 5.82255 163.054 5.97255C163.704 6.12255 164.387 6.33921 165.104 6.62255L164.279 9.09755C163.079 8.63088 162.079 8.39755 161.279 8.39755C160.429 8.39755 159.812 8.66421 159.429 9.19755C159.046 9.71421 158.854 10.5142 158.854 11.5975ZM177.485 17.9475C176.618 18.2975 175.802 18.5475 175.035 18.6975C174.268 18.8475 173.543 18.9225 172.86 18.9225C170.977 18.9225 169.552 18.3892 168.585 17.3225C167.618 16.2559 167.135 14.8392 167.135 13.0725V11.5725C167.135 10.3892 167.352 9.36421 167.785 8.49755C168.218 7.63088 168.835 6.95588 169.635 6.47255C170.435 5.98921 171.377 5.74755 172.46 5.74755C173.343 5.74755 174.168 5.93088 174.935 6.29755C175.718 6.64755 176.352 7.20588 176.835 7.97255C177.335 8.72255 177.585 9.68921 177.585 10.8725C177.585 11.2225 177.56 11.5975 177.51 11.9975C177.46 12.3809 177.377 12.7892 177.26 13.2225H169.91C169.943 14.2559 170.202 15.0309 170.685 15.5475C171.168 16.0642 171.943 16.3225 173.01 16.3225C173.577 16.3225 174.16 16.2559 174.76 16.1225C175.377 15.9892 176.01 15.7892 176.66 15.5225L177.485 17.9475ZM172.46 8.17255C171.693 8.17255 171.093 8.42255 170.66 8.92255C170.243 9.40588 170.002 10.1059 169.935 11.0225H174.735C174.752 10.9392 174.76 10.8642 174.76 10.7975C174.76 10.7142 174.76 10.6392 174.76 10.5725C174.76 9.77255 174.535 9.17255 174.085 8.77255C173.635 8.37255 173.093 8.17255 172.46 8.17255ZM189.852 16.2725C190.519 16.2725 191.069 16.1142 191.502 15.7975C191.935 15.4809 192.202 15.0559 192.302 14.5225C192.402 13.9725 192.277 13.3642 191.927 12.6975L194.227 11.2975L198.027 18.6725H194.902L193.802 16.1975C193.569 16.9975 193.085 17.6559 192.352 18.1725C191.635 18.6725 190.71 18.9225 189.577 18.9225C188.094 18.9225 186.927 18.5059 186.077 17.6725C185.244 16.8392 184.827 15.7642 184.827 14.4475C184.827 13.5142 185.069 12.6392 185.552 11.8225C186.052 11.0059 186.894 10.2142 188.077 9.44755C187.26 8.81421 186.669 8.18088 186.302 7.54755C185.935 6.89755 185.752 6.20588 185.752 5.47255C185.752 4.72255 185.927 4.03921 186.277 3.42255C186.627 2.80588 187.135 2.32255 187.802 1.97255C188.485 1.60588 189.319 1.42254 190.302 1.42254C191.719 1.42254 192.844 1.78921 193.677 2.52255C194.51 3.25588 194.927 4.27255 194.927 5.57255C194.927 6.35588 194.769 7.03088 194.452 7.59755C194.152 8.16421 193.735 8.68088 193.202 9.14755C192.669 9.59755 192.044 10.0475 191.327 10.4975L189.577 11.6225C188.827 12.1059 188.335 12.5725 188.102 13.0225C187.869 13.4725 187.752 13.9059 187.752 14.3225C187.752 14.9892 187.944 15.4809 188.327 15.7975C188.727 16.1142 189.235 16.2725 189.852 16.2725ZM188.527 5.62255C188.527 5.98921 188.627 6.39755 188.827 6.84755C189.044 7.29755 189.41 7.75588 189.927 8.22255C190.51 7.83921 190.952 7.52255 191.252 7.27255C191.552 7.00588 191.76 6.75588 191.877 6.52255C191.994 6.28921 192.052 6.03088 192.052 5.74755C192.052 5.14755 191.885 4.71421 191.552 4.44755C191.219 4.16421 190.81 4.02255 190.327 4.02255C189.827 4.02255 189.402 4.15588 189.052 4.42255C188.702 4.68921 188.527 5.08921 188.527 5.62255ZM10.8 45.7975V48.6725H0.949976V31.6725H10.55V34.5475H3.94998V38.6225H9.79998V41.4975H3.94998V45.7975H10.8ZM20.1783 38.4225C19.7616 38.4225 19.2866 38.5225 18.7533 38.7225C18.22 38.9225 17.5866 39.3142 16.8533 39.8975V48.6725H13.9783V35.9975H16.7033V37.6975C17.4866 37.0142 18.2283 36.5225 18.9283 36.2225C19.6283 35.9059 20.3366 35.7475 21.0533 35.7475C22.27 35.7475 23.195 36.1392 23.8283 36.9225C24.4616 37.6892 24.7783 38.7725 24.7783 40.1725V48.6725H21.9033V40.5225C21.9033 39.1225 21.3283 38.4225 20.1783 38.4225ZM39.1029 49.9475C39.1029 51.2975 38.5696 52.3475 37.5029 53.0975C36.4529 53.8642 34.9862 54.2475 33.1029 54.2475C32.2196 54.2475 31.2862 54.1475 30.3029 53.9475C29.3196 53.7475 28.4112 53.4142 27.5779 52.9475L28.4029 50.6725C29.2029 51.0725 29.9946 51.3559 30.7779 51.5225C31.5612 51.7059 32.3279 51.7975 33.0779 51.7975C34.1279 51.7975 34.9279 51.6559 35.4779 51.3725C36.0279 51.0892 36.3029 50.7142 36.3029 50.2475C36.3029 49.5309 35.8779 49.1725 35.0279 49.1725H32.0279C31.2112 49.1725 30.5529 49.0392 30.0529 48.7725C29.5529 48.5059 29.1862 48.1642 28.9529 47.7475C28.7196 47.3142 28.6029 46.8642 28.6029 46.3975C28.6029 45.9142 28.7029 45.4642 28.9029 45.0475C29.1196 44.6142 29.4112 44.2142 29.7779 43.8475C29.1779 43.4809 28.6946 42.9892 28.3279 42.3725C27.9779 41.7559 27.8029 41.0142 27.8029 40.1475C27.8029 39.1642 28.0112 38.3475 28.4279 37.6975C28.8446 37.0475 29.4112 36.5642 30.1279 36.2475C30.8612 35.9142 31.6696 35.7475 32.5529 35.7475H32.9779C33.3112 35.7475 33.6362 35.7725 33.9529 35.8225C34.2696 35.8559 34.5696 35.9142 34.8529 35.9975H39.3779V38.4475L36.8779 38.0475C37.1279 38.3142 37.3196 38.6475 37.4529 39.0475C37.6029 39.4309 37.6779 39.9059 37.6779 40.4725C37.6779 41.3225 37.4612 42.0559 37.0279 42.6725C36.6112 43.2725 36.0446 43.7392 35.3279 44.0725C34.6279 44.3892 33.8446 44.5475 32.9779 44.5475H32.5529C32.2196 44.5475 31.9029 44.5225 31.6029 44.4725C31.4196 44.6725 31.2862 44.8809 31.2029 45.0975C31.1196 45.2975 31.0779 45.4892 31.0779 45.6725C31.0779 46.2559 31.4529 46.5475 32.2029 46.5475H35.2529C36.4029 46.5475 37.3279 46.8475 38.0279 47.4475C38.7446 48.0309 39.1029 48.8642 39.1029 49.9475ZM32.9779 42.1975C33.4946 42.1975 33.9446 42.0225 34.3279 41.6725C34.7279 41.3225 34.9279 40.8142 34.9279 40.1475C34.9279 39.4809 34.7279 38.9725 34.3279 38.6225C33.9446 38.2725 33.4946 38.0975 32.9779 38.0975H32.5529C32.0196 38.0975 31.5529 38.2725 31.1529 38.6225C30.7696 38.9725 30.5779 39.4809 30.5779 40.1475C30.5779 40.8142 30.7696 41.3225 31.1529 41.6725C31.5529 42.0225 32.0196 42.1975 32.5529 42.1975H32.9779ZM44.8092 33.5975H41.7842V30.6225H44.8092V33.5975ZM44.7342 48.6725H41.8592V35.9975H44.7342V48.6725ZM54.8951 38.4225C54.4784 38.4225 54.0034 38.5225 53.4701 38.7225C52.9368 38.9225 52.3034 39.3142 51.5701 39.8975V48.6725H48.6951V35.9975H51.4201V37.6975C52.2034 37.0142 52.9451 36.5225 53.6451 36.2225C54.3451 35.9059 55.0534 35.7475 55.7701 35.7475C56.9868 35.7475 57.9118 36.1392 58.5451 36.9225C59.1784 37.6892 59.4951 38.7725 59.4951 40.1725V48.6725H56.6201V40.5225C56.6201 39.1225 56.0451 38.4225 54.8951 38.4225ZM72.9197 47.9475C72.053 48.2975 71.2364 48.5475 70.4697 48.6975C69.703 48.8475 68.978 48.9225 68.2947 48.9225C66.4114 48.9225 64.9864 48.3892 64.0197 47.3225C63.053 46.2559 62.5697 44.8392 62.5697 43.0725V41.5725C62.5697 40.3892 62.7864 39.3642 63.2197 38.4975C63.653 37.6309 64.2697 36.9559 65.0697 36.4725C65.8697 35.9892 66.8114 35.7475 67.8947 35.7475C68.778 35.7475 69.603 35.9309 70.3697 36.2975C71.153 36.6475 71.7864 37.2059 72.2697 37.9725C72.7697 38.7225 73.0197 39.6892 73.0197 40.8725C73.0197 41.2225 72.9947 41.5975 72.9447 41.9975C72.8947 42.3809 72.8114 42.7892 72.6947 43.2225H65.3447C65.378 44.2559 65.6364 45.0309 66.1197 45.5475C66.603 46.0642 67.378 46.3225 68.4447 46.3225C69.0114 46.3225 69.5947 46.2559 70.1947 46.1225C70.8114 45.9892 71.4447 45.7892 72.0947 45.5225L72.9197 47.9475ZM67.8947 38.1725C67.128 38.1725 66.528 38.4225 66.0947 38.9225C65.678 39.4059 65.4364 40.1059 65.3697 41.0225H70.1697C70.1864 40.9392 70.1947 40.8642 70.1947 40.7975C70.1947 40.7142 70.1947 40.6392 70.1947 40.5725C70.1947 39.7725 69.9697 39.1725 69.5197 38.7725C69.0697 38.3725 68.528 38.1725 67.8947 38.1725ZM85.9568 47.9475C85.0901 48.2975 84.2735 48.5475 83.5068 48.6975C82.7401 48.8475 82.0151 48.9225 81.3318 48.9225C79.4485 48.9225 78.0235 48.3892 77.0568 47.3225C76.0901 46.2559 75.6068 44.8392 75.6068 43.0725V41.5725C75.6068 40.3892 75.8235 39.3642 76.2568 38.4975C76.6901 37.6309 77.3068 36.9559 78.1068 36.4725C78.9068 35.9892 79.8485 35.7475 80.9318 35.7475C81.8151 35.7475 82.6401 35.9309 83.4068 36.2975C84.1901 36.6475 84.8235 37.2059 85.3068 37.9725C85.8068 38.7225 86.0568 39.6892 86.0568 40.8725C86.0568 41.2225 86.0318 41.5975 85.9818 41.9975C85.9318 42.3809 85.8485 42.7892 85.7318 43.2225H78.3818C78.4151 44.2559 78.6735 45.0309 79.1568 45.5475C79.6401 46.0642 80.4151 46.3225 81.4818 46.3225C82.0485 46.3225 82.6318 46.2559 83.2318 46.1225C83.8485 45.9892 84.4818 45.7892 85.1318 45.5225L85.9568 47.9475ZM80.9318 38.1725C80.1651 38.1725 79.5651 38.4225 79.1318 38.9225C78.7151 39.4059 78.4735 40.1059 78.4068 41.0225H83.2068C83.2235 40.9392 83.2318 40.8642 83.2318 40.7975C83.2318 40.7142 83.2318 40.6392 83.2318 40.5725C83.2318 39.7725 83.0068 39.1725 82.5568 38.7725C82.1068 38.3725 81.5651 38.1725 80.9318 38.1725ZM96.5189 38.6225C95.7356 38.6225 94.9856 38.7475 94.2689 38.9975C93.5689 39.2309 92.8939 39.6142 92.2439 40.1475V48.6725H89.3689V35.9975H92.0939V37.9475C92.9439 37.1475 93.7023 36.5809 94.3689 36.2475C95.0356 35.9142 95.7523 35.7475 96.5189 35.7475V38.6225ZM101.987 33.5975H98.9619V30.6225H101.987V33.5975ZM101.912 48.6725H99.0369V35.9975H101.912V48.6725ZM112.073 38.4225C111.656 38.4225 111.181 38.5225 110.648 38.7225C110.114 38.9225 109.481 39.3142 108.748 39.8975V48.6725H105.873V35.9975H108.598V37.6975C109.381 37.0142 110.123 36.5225 110.823 36.2225C111.523 35.9059 112.231 35.7475 112.948 35.7475C114.164 35.7475 115.089 36.1392 115.723 36.9225C116.356 37.6892 116.673 38.7725 116.673 40.1725V48.6725H113.798V40.5225C113.798 39.1225 113.223 38.4225 112.073 38.4225ZM130.997 49.9475C130.997 51.2975 130.464 52.3475 129.397 53.0975C128.347 53.8642 126.881 54.2475 124.997 54.2475C124.114 54.2475 123.181 54.1475 122.197 53.9475C121.214 53.7475 120.306 53.4142 119.472 52.9475L120.297 50.6725C121.097 51.0725 121.889 51.3559 122.672 51.5225C123.456 51.7059 124.222 51.7975 124.972 51.7975C126.022 51.7975 126.822 51.6559 127.372 51.3725C127.922 51.0892 128.197 50.7142 128.197 50.2475C128.197 49.5309 127.772 49.1725 126.922 49.1725H123.922C123.106 49.1725 122.447 49.0392 121.947 48.7725C121.447 48.5059 121.081 48.1642 120.847 47.7475C120.614 47.3142 120.497 46.8642 120.497 46.3975C120.497 45.9142 120.597 45.4642 120.797 45.0475C121.014 44.6142 121.306 44.2142 121.672 43.8475C121.072 43.4809 120.589 42.9892 120.222 42.3725C119.872 41.7559 119.697 41.0142 119.697 40.1475C119.697 39.1642 119.906 38.3475 120.322 37.6975C120.739 37.0475 121.306 36.5642 122.022 36.2475C122.756 35.9142 123.564 35.7475 124.447 35.7475H124.872C125.206 35.7475 125.531 35.7725 125.847 35.8225C126.164 35.8559 126.464 35.9142 126.747 35.9975H131.272V38.4475L128.772 38.0475C129.022 38.3142 129.214 38.6475 129.347 39.0475C129.497 39.4309 129.572 39.9059 129.572 40.4725C129.572 41.3225 129.356 42.0559 128.922 42.6725C128.506 43.2725 127.939 43.7392 127.222 44.0725C126.522 44.3892 125.739 44.5475 124.872 44.5475H124.447C124.114 44.5475 123.797 44.5225 123.497 44.4725C123.314 44.6725 123.181 44.8809 123.097 45.0975C123.014 45.2975 122.972 45.4892 122.972 45.6725C122.972 46.2559 123.347 46.5475 124.097 46.5475H127.147C128.297 46.5475 129.222 46.8475 129.922 47.4475C130.639 48.0309 130.997 48.8642 130.997 49.9475ZM124.872 42.1975C125.389 42.1975 125.839 42.0225 126.222 41.6725C126.622 41.3225 126.822 40.8142 126.822 40.1475C126.822 39.4809 126.622 38.9725 126.222 38.6225C125.839 38.2725 125.389 38.0975 124.872 38.0975H124.447C123.914 38.0975 123.447 38.2725 123.047 38.6225C122.664 38.9725 122.472 39.4809 122.472 40.1475C122.472 40.8142 122.664 41.3225 123.047 41.6725C123.447 42.0225 123.914 42.1975 124.447 42.1975H124.872ZM142.834 46.1475C144.767 46.1475 145.734 45.4309 145.734 43.9975C145.734 43.4142 145.584 42.9559 145.284 42.6225C145 42.2892 144.467 41.9975 143.684 41.7475L141.634 41.0725C139.184 40.2725 137.959 38.6642 137.959 36.2475C137.959 34.8475 138.392 33.6975 139.259 32.7975C140.142 31.8809 141.517 31.4225 143.384 31.4225C144.167 31.4225 144.942 31.5142 145.709 31.6975C146.475 31.8642 147.292 32.1392 148.159 32.5225L147.234 35.0975C146.434 34.7809 145.75 34.5559 145.184 34.4225C144.634 34.2725 144.067 34.1975 143.484 34.1975C142.717 34.1975 142.109 34.3392 141.659 34.6225C141.225 34.8892 141.009 35.3809 141.009 36.0975C141.009 36.6309 141.159 37.0725 141.459 37.4225C141.775 37.7559 142.292 38.0392 143.009 38.2725L145.059 38.9475C146.292 39.3642 147.217 39.9725 147.834 40.7725C148.467 41.5559 148.784 42.5975 148.784 43.8975C148.784 45.3975 148.309 46.6142 147.359 47.5475C146.409 48.4642 144.917 48.9225 142.884 48.9225C142.084 48.9225 141.25 48.8309 140.384 48.6475C139.534 48.4475 138.6 48.1142 137.584 47.6475L138.509 45.0725C139.442 45.4725 140.234 45.7559 140.884 45.9225C141.55 46.0725 142.2 46.1475 142.834 46.1475ZM162.073 41.5725V43.0725C162.073 44.8392 161.59 46.2559 160.623 47.3225C159.656 48.3892 158.29 48.9225 156.523 48.9225C154.756 48.9225 153.39 48.3892 152.423 47.3225C151.456 46.2559 150.973 44.8392 150.973 43.0725V41.5725C150.973 39.8059 151.448 38.3975 152.398 37.3475C153.365 36.2809 154.74 35.7475 156.523 35.7475C158.306 35.7475 159.673 36.2809 160.623 37.3475C161.59 38.3975 162.073 39.8059 162.073 41.5725ZM159.123 41.5725C159.123 40.5559 158.898 39.7642 158.448 39.1975C157.998 38.6142 157.356 38.3225 156.523 38.3225C155.69 38.3225 155.048 38.6142 154.598 39.1975C154.148 39.7642 153.923 40.5559 153.923 41.5725V43.0725C153.923 44.0892 154.148 44.8892 154.598 45.4725C155.048 46.0559 155.69 46.3475 156.523 46.3475C157.356 46.3475 157.998 46.0559 158.448 45.4725C158.898 44.8892 159.123 44.0892 159.123 43.0725V41.5725ZM167.497 41.5975V43.0725C167.497 44.1392 167.688 44.9392 168.072 45.4725C168.455 46.0059 169.072 46.2725 169.922 46.2725C170.338 46.2725 170.805 46.2225 171.322 46.1225C171.855 46.0059 172.43 45.8309 173.047 45.5975L173.872 48.0225C173.122 48.3225 172.413 48.5475 171.747 48.6975C171.08 48.8475 170.422 48.9225 169.772 48.9225C168.105 48.9225 166.83 48.3892 165.947 47.3225C165.063 46.2559 164.622 44.8392 164.622 43.0725V41.5975C164.622 39.8142 165.063 38.3975 165.947 37.3475C166.83 36.2809 168.105 35.7475 169.772 35.7475C170.405 35.7475 171.047 35.8225 171.697 35.9725C172.347 36.1225 173.03 36.3392 173.747 36.6225L172.922 39.0975C171.722 38.6309 170.722 38.3975 169.922 38.3975C169.072 38.3975 168.455 38.6642 168.072 39.1975C167.688 39.7142 167.497 40.5142 167.497 41.5975ZM179.453 33.5975H176.428V30.6225H179.453V33.5975ZM179.378 48.6725H176.503V35.9975H179.378V48.6725ZM192.964 47.9475C192.097 48.2975 191.28 48.5475 190.514 48.6975C189.747 48.8475 189.022 48.9225 188.339 48.9225C186.455 48.9225 185.03 48.3892 184.064 47.3225C183.097 46.2559 182.614 44.8392 182.614 43.0725V41.5725C182.614 40.3892 182.83 39.3642 183.264 38.4975C183.697 37.6309 184.314 36.9559 185.114 36.4725C185.914 35.9892 186.855 35.7475 187.939 35.7475C188.822 35.7475 189.647 35.9309 190.414 36.2975C191.197 36.6475 191.83 37.2059 192.314 37.9725C192.814 38.7225 193.064 39.6892 193.064 40.8725C193.064 41.2225 193.039 41.5975 192.989 41.9975C192.939 42.3809 192.855 42.7892 192.739 43.2225H185.389C185.422 44.2559 185.68 45.0309 186.164 45.5475C186.647 46.0642 187.422 46.3225 188.489 46.3225C189.055 46.3225 189.639 46.2559 190.239 46.1225C190.855 45.9892 191.489 45.7892 192.139 45.5225L192.964 47.9475ZM187.939 38.1725C187.172 38.1725 186.572 38.4225 186.139 38.9225C185.722 39.4059 185.48 40.1059 185.414 41.0225H190.214C190.23 40.9392 190.239 40.8642 190.239 40.7975C190.239 40.7142 190.239 40.6392 190.239 40.5725C190.239 39.7725 190.014 39.1725 189.564 38.7725C189.114 38.3725 188.572 38.1725 187.939 38.1725ZM204.001 48.2475C203.567 48.4475 203.067 48.6059 202.501 48.7225C201.934 48.8559 201.359 48.9225 200.776 48.9225C199.809 48.9225 199.034 48.7225 198.451 48.3225C197.867 47.9225 197.442 47.3642 197.176 46.6475C196.926 45.9309 196.801 45.1142 196.801 44.1975V38.4975H194.751V35.9975H196.801V32.6975H199.676V35.9975H203.626V38.4975H199.676V44.1975C199.676 44.9642 199.817 45.4975 200.101 45.7975C200.401 46.0809 200.826 46.2225 201.376 46.2225C201.642 46.2225 201.926 46.1975 202.226 46.1475C202.542 46.0809 202.892 45.9725 203.276 45.8225L204.001 48.2475ZM211.437 49.9225C210.887 51.4559 210.187 52.5559 209.337 53.2225C208.487 53.9059 207.321 54.2475 205.837 54.2475V51.3725C206.721 51.3392 207.412 51.1392 207.912 50.7725C208.429 50.4225 208.812 49.9309 209.062 49.2975L209.287 48.7225L204.762 35.9975H207.612L209.787 42.3225L210.637 44.9975L211.462 42.3225L213.537 35.9975H216.387L211.437 49.9225Z" fill="white"/>
</svg>
