<svg width="216" height="55" viewBox="0 0 216 55" fill="none" xmlns="http://www.w3.org/2000/svg">
<path d="M3.625 2L8.375 13.625L13.1 2H16.375V19H13.5V12.5L13.875 6.55L9.65 17H6.975L2.85 6.525L3.225 12.5V19H0.35V2H3.625ZM30.3025 19.125C29.4525 19.125 28.7692 18.95 28.2525 18.6C27.7525 18.25 27.3859 17.8167 27.1525 17.3C26.4359 17.9667 25.7442 18.4583 25.0775 18.775C24.4109 19.0917 23.6942 19.25 22.9275 19.25C21.8109 19.25 20.9859 18.8917 20.4525 18.175C19.9359 17.4583 19.6775 16.55 19.6775 15.45C19.6775 14.7167 19.8109 14.075 20.0775 13.525C20.3609 12.9583 20.8192 12.5167 21.4525 12.2C22.0859 11.8833 22.9525 11.725 24.0525 11.725C24.4859 11.725 24.9359 11.7583 25.4025 11.825C25.8692 11.875 26.3359 11.9417 26.8025 12.025V10.55C26.8025 9.85 26.6109 9.375 26.2275 9.125C25.8442 8.85833 25.3275 8.725 24.6775 8.725C24.1775 8.725 23.6275 8.79167 23.0275 8.925C22.4442 9.05833 21.8109 9.26667 21.1275 9.55L20.3025 7.1C21.9859 6.41667 23.5109 6.075 24.8775 6.075C26.1109 6.075 27.0609 6.28333 27.7275 6.7C28.4109 7.11667 28.8859 7.66667 29.1525 8.35C29.4192 9.03333 29.5525 9.76667 29.5525 10.55V15.425C29.5525 15.675 29.6192 15.9167 29.7525 16.15C29.9025 16.3667 30.1859 16.475 30.6025 16.475H30.8775V19.125H30.3025ZM22.4525 15.4C22.4525 15.85 22.5525 16.2083 22.7525 16.475C22.9525 16.725 23.2442 16.85 23.6275 16.85C24.0109 16.85 24.4442 16.75 24.9275 16.55C25.4109 16.35 26.0359 15.8833 26.8025 15.15V14.075C25.9359 13.925 25.0859 13.85 24.2525 13.85C23.6025 13.85 23.1359 13.9833 22.8525 14.25C22.5859 14.5167 22.4525 14.9 22.4525 15.4ZM40.9984 18.575C40.5651 18.775 40.0651 18.9333 39.4984 19.05C38.9318 19.1833 38.3568 19.25 37.7734 19.25C36.8068 19.25 36.0318 19.05 35.4484 18.65C34.8651 18.25 34.4401 17.6917 34.1734 16.975C33.9234 16.2583 33.7984 15.4417 33.7984 14.525V8.825H31.7484V6.325H33.7984V3.025H36.6734V6.325H40.6234V8.825H36.6734V14.525C36.6734 15.2917 36.8151 15.825 37.0984 16.125C37.3984 16.4083 37.8234 16.55 38.3734 16.55C38.6401 16.55 38.9234 16.525 39.2234 16.475C39.5401 16.4083 39.8901 16.3 40.2734 16.15L40.9984 18.575ZM52.935 18.275C52.0683 18.625 51.2516 18.875 50.485 19.025C49.7183 19.175 48.9933 19.25 48.31 19.25C46.4266 19.25 45.0016 18.7167 44.035 17.65C43.0683 16.5833 42.585 15.1667 42.585 13.4V11.9C42.585 10.7167 42.8016 9.69167 43.235 8.825C43.6683 7.95833 44.285 7.28333 45.085 6.8C45.885 6.31667 46.8266 6.075 47.91 6.075C48.7933 6.075 49.6183 6.25833 50.385 6.625C51.1683 6.975 51.8016 7.53333 52.285 8.3C52.785 9.05 53.035 10.0167 53.035 11.2C53.035 11.55 53.01 11.925 52.96 12.325C52.91 12.7083 52.8266 13.1167 52.71 13.55H45.36C45.3933 14.5833 45.6516 15.3583 46.135 15.875C46.6183 16.3917 47.3933 16.65 48.46 16.65C49.0266 16.65 49.61 16.5833 50.21 16.45C50.8266 16.3167 51.46 16.1167 52.11 15.85L52.935 18.275ZM47.91 8.5C47.1433 8.5 46.5433 8.75 46.11 9.25C45.6933 9.73333 45.4516 10.4333 45.385 11.35H50.185C50.2016 11.2667 50.21 11.1917 50.21 11.125C50.21 11.0417 50.21 10.9667 50.21 10.9C50.21 10.1 49.985 9.5 49.535 9.1C49.085 8.7 48.5433 8.5 47.91 8.5ZM63.4971 8.95C62.7137 8.95 61.9637 9.075 61.2471 9.325C60.5471 9.55833 59.8721 9.94167 59.2221 10.475V19H56.3471V6.325H59.0721V8.275C59.9221 7.475 60.6804 6.90833 61.3471 6.575C62.0137 6.24167 62.7304 6.075 63.4971 6.075V8.95ZM68.965 3.925H65.94V0.949998H68.965V3.925ZM68.89 19H66.015V6.325H68.89V19ZM82.451 19.125C81.601 19.125 80.9176 18.95 80.401 18.6C79.901 18.25 79.5343 17.8167 79.301 17.3C78.5843 17.9667 77.8926 18.4583 77.226 18.775C76.5593 19.0917 75.8426 19.25 75.076 19.25C73.9593 19.25 73.1343 18.8917 72.601 18.175C72.0843 17.4583 71.826 16.55 71.826 15.45C71.826 14.7167 71.9593 14.075 72.226 13.525C72.5093 12.9583 72.9676 12.5167 73.601 12.2C74.2343 11.8833 75.101 11.725 76.201 11.725C76.6343 11.725 77.0843 11.7583 77.551 11.825C78.0176 11.875 78.4843 11.9417 78.951 12.025V10.55C78.951 9.85 78.7593 9.375 78.376 9.125C77.9926 8.85833 77.476 8.725 76.826 8.725C76.326 8.725 75.776 8.79167 75.176 8.925C74.5926 9.05833 73.9593 9.26667 73.276 9.55L72.451 7.1C74.1343 6.41667 75.6593 6.075 77.026 6.075C78.2593 6.075 79.2093 6.28333 79.876 6.7C80.5593 7.11667 81.0343 7.66667 81.301 8.35C81.5676 9.03333 81.701 9.76667 81.701 10.55V15.425C81.701 15.675 81.7676 15.9167 81.901 16.15C82.051 16.3667 82.3343 16.475 82.751 16.475H83.026V19.125H82.451ZM74.601 15.4C74.601 15.85 74.701 16.2083 74.901 16.475C75.101 16.725 75.3926 16.85 75.776 16.85C76.1593 16.85 76.5926 16.75 77.076 16.55C77.5593 16.35 78.1843 15.8833 78.951 15.15V14.075C78.0843 13.925 77.2343 13.85 76.401 13.85C75.751 13.85 75.2843 13.9833 75.001 14.25C74.7343 14.5167 74.601 14.9 74.601 15.4ZM85.4469 15.425V0.5H88.3219V15.425C88.3219 15.675 88.3802 15.9167 88.4969 16.15C88.6302 16.3667 88.8802 16.475 89.2469 16.475H89.6469V19.125H88.9469C87.9969 19.125 87.2719 18.9417 86.7719 18.575C86.2719 18.2083 85.9219 17.7417 85.7219 17.175C85.5385 16.6083 85.4469 16.025 85.4469 15.425ZM101.511 16.475C103.444 16.475 104.411 15.7583 104.411 14.325C104.411 13.7417 104.261 13.2833 103.961 12.95C103.678 12.6167 103.144 12.325 102.361 12.075L100.311 11.4C97.8609 10.6 96.6359 8.99167 96.6359 6.575C96.6359 5.175 97.0693 4.025 97.9359 3.125C98.8193 2.20833 100.194 1.75 102.061 1.75C102.844 1.75 103.619 1.84167 104.386 2.025C105.153 2.19167 105.969 2.46667 106.836 2.85L105.911 5.425C105.111 5.10833 104.428 4.88333 103.861 4.75C103.311 4.6 102.744 4.525 102.161 4.525C101.394 4.525 100.786 4.66667 100.336 4.95C99.9026 5.21667 99.6859 5.70833 99.6859 6.425C99.6859 6.95833 99.8359 7.4 100.136 7.75C100.453 8.08333 100.969 8.36667 101.686 8.6L103.736 9.275C104.969 9.69167 105.894 10.3 106.511 11.1C107.144 11.8833 107.461 12.925 107.461 14.225C107.461 15.725 106.986 16.9417 106.036 17.875C105.086 18.7917 103.594 19.25 101.561 19.25C100.761 19.25 99.9276 19.1583 99.0609 18.975C98.2109 18.775 97.2776 18.4417 96.2609 17.975L97.1859 15.4C98.1193 15.8 98.9109 16.0833 99.5609 16.25C100.228 16.4 100.878 16.475 101.511 16.475ZM112.575 11.925V13.4C112.575 14.4667 112.767 15.2667 113.15 15.8C113.534 16.3333 114.15 16.6 115 16.6C115.417 16.6 115.884 16.55 116.4 16.45C116.934 16.3333 117.509 16.1583 118.125 15.925L118.95 18.35C118.2 18.65 117.492 18.875 116.825 19.025C116.159 19.175 115.5 19.25 114.85 19.25C113.184 19.25 111.909 18.7167 111.025 17.65C110.142 16.5833 109.7 15.1667 109.7 13.4V11.925C109.7 10.1417 110.142 8.725 111.025 7.675C111.909 6.60833 113.184 6.075 114.85 6.075C115.484 6.075 116.125 6.15 116.775 6.3C117.425 6.45 118.109 6.66667 118.825 6.95L118 9.425C116.8 8.95833 115.8 8.725 115 8.725C114.15 8.725 113.534 8.99167 113.15 9.525C112.767 10.0417 112.575 10.8417 112.575 11.925ZM124.531 3.925H121.506V0.949998H124.531V3.925ZM124.456 19H121.581V6.325H124.456V19ZM138.042 18.275C137.176 18.625 136.359 18.875 135.592 19.025C134.826 19.175 134.101 19.25 133.417 19.25C131.534 19.25 130.109 18.7167 129.142 17.65C128.176 16.5833 127.692 15.1667 127.692 13.4V11.9C127.692 10.7167 127.909 9.69167 128.342 8.825C128.776 7.95833 129.392 7.28333 130.192 6.8C130.992 6.31667 131.934 6.075 133.017 6.075C133.901 6.075 134.726 6.25833 135.492 6.625C136.276 6.975 136.909 7.53333 137.392 8.3C137.892 9.05 138.142 10.0167 138.142 11.2C138.142 11.55 138.117 11.925 138.067 12.325C138.017 12.7083 137.934 13.1167 137.817 13.55H130.467C130.501 14.5833 130.759 15.3583 131.242 15.875C131.726 16.3917 132.501 16.65 133.567 16.65C134.134 16.65 134.717 16.5833 135.317 16.45C135.934 16.3167 136.567 16.1167 137.217 15.85L138.042 18.275ZM133.017 8.5C132.251 8.5 131.651 8.75 131.217 9.25C130.801 9.73333 130.559 10.4333 130.492 11.35H135.292C135.309 11.2667 135.317 11.1917 135.317 11.125C135.317 11.0417 135.317 10.9667 135.317 10.9C135.317 10.1 135.092 9.5 134.642 9.1C134.192 8.7 133.651 8.5 133.017 8.5ZM147.654 8.75C147.238 8.75 146.763 8.85 146.229 9.05C145.696 9.25 145.063 9.64167 144.329 10.225V19H141.454V6.325H144.179V8.025C144.963 7.34167 145.704 6.85 146.404 6.55C147.104 6.23333 147.813 6.075 148.529 6.075C149.746 6.075 150.671 6.46667 151.304 7.25C151.938 8.01667 152.254 9.1 152.254 10.5V19H149.379V10.85C149.379 9.45 148.804 8.75 147.654 8.75ZM158.254 11.925V13.4C158.254 14.4667 158.446 15.2667 158.829 15.8C159.212 16.3333 159.829 16.6 160.679 16.6C161.096 16.6 161.562 16.55 162.079 16.45C162.612 16.3333 163.187 16.1583 163.804 15.925L164.629 18.35C163.879 18.65 163.171 18.875 162.504 19.025C161.837 19.175 161.179 19.25 160.529 19.25C158.862 19.25 157.587 18.7167 156.704 17.65C155.821 16.5833 155.379 15.1667 155.379 13.4V11.925C155.379 10.1417 155.821 8.725 156.704 7.675C157.587 6.60833 158.862 6.075 160.529 6.075C161.162 6.075 161.804 6.15 162.454 6.3C163.104 6.45 163.787 6.66667 164.504 6.95L163.679 9.425C162.479 8.95833 161.479 8.725 160.679 8.725C159.829 8.725 159.212 8.99167 158.829 9.525C158.446 10.0417 158.254 10.8417 158.254 11.925ZM176.885 18.275C176.018 18.625 175.202 18.875 174.435 19.025C173.668 19.175 172.943 19.25 172.26 19.25C170.377 19.25 168.952 18.7167 167.985 17.65C167.018 16.5833 166.535 15.1667 166.535 13.4V11.9C166.535 10.7167 166.752 9.69167 167.185 8.825C167.618 7.95833 168.235 7.28333 169.035 6.8C169.835 6.31667 170.777 6.075 171.86 6.075C172.743 6.075 173.568 6.25833 174.335 6.625C175.118 6.975 175.752 7.53333 176.235 8.3C176.735 9.05 176.985 10.0167 176.985 11.2C176.985 11.55 176.96 11.925 176.91 12.325C176.86 12.7083 176.777 13.1167 176.66 13.55H169.31C169.343 14.5833 169.602 15.3583 170.085 15.875C170.568 16.3917 171.343 16.65 172.41 16.65C172.977 16.65 173.56 16.5833 174.16 16.45C174.777 16.3167 175.41 16.1167 176.06 15.85L176.885 18.275ZM171.86 8.5C171.093 8.5 170.493 8.75 170.06 9.25C169.643 9.73333 169.402 10.4333 169.335 11.35H174.135C174.152 11.2667 174.16 11.1917 174.16 11.125C174.16 11.0417 174.16 10.9667 174.16 10.9C174.16 10.1 173.935 9.5 173.485 9.1C173.035 8.7 172.493 8.5 171.86 8.5ZM189.252 16.6C189.919 16.6 190.469 16.4417 190.902 16.125C191.335 15.8083 191.602 15.3833 191.702 14.85C191.802 14.3 191.677 13.6917 191.327 13.025L193.627 11.625L197.427 19H194.302L193.202 16.525C192.969 17.325 192.485 17.9833 191.752 18.5C191.035 19 190.11 19.25 188.977 19.25C187.494 19.25 186.327 18.8333 185.477 18C184.644 17.1667 184.227 16.0917 184.227 14.775C184.227 13.8417 184.469 12.9667 184.952 12.15C185.452 11.3333 186.294 10.5417 187.477 9.775C186.66 9.14167 186.069 8.50833 185.702 7.875C185.335 7.225 185.152 6.53333 185.152 5.8C185.152 5.05 185.327 4.36667 185.677 3.75C186.027 3.13333 186.535 2.65 187.202 2.3C187.885 1.93333 188.719 1.75 189.702 1.75C191.119 1.75 192.244 2.11667 193.077 2.85C193.91 3.58333 194.327 4.6 194.327 5.9C194.327 6.68333 194.169 7.35833 193.852 7.925C193.552 8.49167 193.135 9.00833 192.602 9.475C192.069 9.925 191.444 10.375 190.727 10.825L188.977 11.95C188.227 12.4333 187.735 12.9 187.502 13.35C187.269 13.8 187.152 14.2333 187.152 14.65C187.152 15.3167 187.344 15.8083 187.727 16.125C188.127 16.4417 188.635 16.6 189.252 16.6ZM187.927 5.95C187.927 6.31667 188.027 6.725 188.227 7.175C188.444 7.625 188.81 8.08333 189.327 8.55C189.91 8.16667 190.352 7.85 190.652 7.6C190.952 7.33333 191.16 7.08333 191.277 6.85C191.394 6.61667 191.452 6.35833 191.452 6.075C191.452 5.475 191.285 5.04167 190.952 4.775C190.619 4.49167 190.21 4.35 189.727 4.35C189.227 4.35 188.802 4.48333 188.452 4.75C188.102 5.01667 187.927 5.41667 187.927 5.95ZM10.2 46.125V49H0.35V32H9.95V34.875H3.35V38.95H9.2V41.825H3.35V46.125H10.2ZM19.5783 38.75C19.1617 38.75 18.6867 38.85 18.1533 39.05C17.62 39.25 16.9867 39.6417 16.2533 40.225V49H13.3783V36.325H16.1033V38.025C16.8867 37.3417 17.6283 36.85 18.3283 36.55C19.0283 36.2333 19.7367 36.075 20.4533 36.075C21.67 36.075 22.595 36.4667 23.2283 37.25C23.8617 38.0167 24.1783 39.1 24.1783 40.5V49H21.3033V40.85C21.3033 39.45 20.7283 38.75 19.5783 38.75ZM38.5029 50.275C38.5029 51.625 37.9696 52.675 36.9029 53.425C35.8529 54.1917 34.3863 54.575 32.5029 54.575C31.6196 54.575 30.6863 54.475 29.7029 54.275C28.7196 54.075 27.8113 53.7417 26.9779 53.275L27.8029 51C28.6029 51.4 29.3946 51.6833 30.1779 51.85C30.9613 52.0333 31.7279 52.125 32.4779 52.125C33.5279 52.125 34.3279 51.9833 34.8779 51.7C35.4279 51.4167 35.7029 51.0417 35.7029 50.575C35.7029 49.8583 35.2779 49.5 34.4279 49.5H31.4279C30.6113 49.5 29.9529 49.3667 29.4529 49.1C28.9529 48.8333 28.5863 48.4917 28.3529 48.075C28.1196 47.6417 28.0029 47.1917 28.0029 46.725C28.0029 46.2417 28.1029 45.7917 28.3029 45.375C28.5196 44.9417 28.8113 44.5417 29.1779 44.175C28.5779 43.8083 28.0946 43.3167 27.7279 42.7C27.3779 42.0833 27.2029 41.3417 27.2029 40.475C27.2029 39.4917 27.4113 38.675 27.8279 38.025C28.2446 37.375 28.8113 36.8917 29.5279 36.575C30.2613 36.2417 31.0696 36.075 31.9529 36.075H32.3779C32.7113 36.075 33.0363 36.1 33.3529 36.15C33.6696 36.1833 33.9696 36.2417 34.2529 36.325H38.7779V38.775L36.2779 38.375C36.5279 38.6417 36.7196 38.975 36.8529 39.375C37.0029 39.7583 37.0779 40.2333 37.0779 40.8C37.0779 41.65 36.8613 42.3833 36.4279 43C36.0113 43.6 35.4446 44.0667 34.7279 44.4C34.0279 44.7167 33.2446 44.875 32.3779 44.875H31.9529C31.6196 44.875 31.3029 44.85 31.0029 44.8C30.8196 45 30.6863 45.2083 30.6029 45.425C30.5196 45.625 30.4779 45.8167 30.4779 46C30.4779 46.5833 30.8529 46.875 31.6029 46.875H34.6529C35.8029 46.875 36.7279 47.175 37.4279 47.775C38.1446 48.3583 38.5029 49.1917 38.5029 50.275ZM32.3779 42.525C32.8946 42.525 33.3446 42.35 33.7279 42C34.1279 41.65 34.3279 41.1417 34.3279 40.475C34.3279 39.8083 34.1279 39.3 33.7279 38.95C33.3446 38.6 32.8946 38.425 32.3779 38.425H31.9529C31.4196 38.425 30.9529 38.6 30.5529 38.95C30.1696 39.3 29.9779 39.8083 29.9779 40.475C29.9779 41.1417 30.1696 41.65 30.5529 42C30.9529 42.35 31.4196 42.525 31.9529 42.525H32.3779ZM44.2092 33.925H41.1842V30.95H44.2092V33.925ZM44.1342 49H41.2592V36.325H44.1342V49ZM54.2951 38.75C53.8785 38.75 53.4035 38.85 52.8701 39.05C52.3368 39.25 51.7035 39.6417 50.9701 40.225V49H48.0951V36.325H50.8201V38.025C51.6035 37.3417 52.3451 36.85 53.0451 36.55C53.7451 36.2333 54.4535 36.075 55.1701 36.075C56.3868 36.075 57.3118 36.4667 57.9451 37.25C58.5785 38.0167 58.8951 39.1 58.8951 40.5V49H56.0201V40.85C56.0201 39.45 55.4451 38.75 54.2951 38.75ZM72.3197 48.275C71.4531 48.625 70.6364 48.875 69.8697 49.025C69.1031 49.175 68.3781 49.25 67.6947 49.25C65.8114 49.25 64.3864 48.7167 63.4197 47.65C62.4531 46.5833 61.9697 45.1667 61.9697 43.4V41.9C61.9697 40.7167 62.1864 39.6917 62.6197 38.825C63.0531 37.9583 63.6697 37.2833 64.4697 36.8C65.2697 36.3167 66.2114 36.075 67.2947 36.075C68.1781 36.075 69.0031 36.2583 69.7697 36.625C70.5531 36.975 71.1864 37.5333 71.6697 38.3C72.1697 39.05 72.4197 40.0167 72.4197 41.2C72.4197 41.55 72.3947 41.925 72.3447 42.325C72.2947 42.7083 72.2114 43.1167 72.0947 43.55H64.7447C64.7781 44.5833 65.0364 45.3583 65.5197 45.875C66.0031 46.3917 66.7781 46.65 67.8447 46.65C68.4114 46.65 68.9947 46.5833 69.5947 46.45C70.2114 46.3167 70.8447 46.1167 71.4947 45.85L72.3197 48.275ZM67.2947 38.5C66.5281 38.5 65.9281 38.75 65.4947 39.25C65.0781 39.7333 64.8364 40.4333 64.7697 41.35H69.5697C69.5864 41.2667 69.5947 41.1917 69.5947 41.125C69.5947 41.0417 69.5947 40.9667 69.5947 40.9C69.5947 40.1 69.3697 39.5 68.9197 39.1C68.4697 38.7 67.9281 38.5 67.2947 38.5ZM85.3568 48.275C84.4902 48.625 83.6735 48.875 82.9068 49.025C82.1402 49.175 81.4152 49.25 80.7318 49.25C78.8485 49.25 77.4235 48.7167 76.4568 47.65C75.4902 46.5833 75.0068 45.1667 75.0068 43.4V41.9C75.0068 40.7167 75.2235 39.6917 75.6568 38.825C76.0902 37.9583 76.7068 37.2833 77.5068 36.8C78.3068 36.3167 79.2485 36.075 80.3318 36.075C81.2152 36.075 82.0402 36.2583 82.8068 36.625C83.5902 36.975 84.2235 37.5333 84.7068 38.3C85.2068 39.05 85.4568 40.0167 85.4568 41.2C85.4568 41.55 85.4318 41.925 85.3818 42.325C85.3318 42.7083 85.2485 43.1167 85.1318 43.55H77.7818C77.8152 44.5833 78.0735 45.3583 78.5568 45.875C79.0402 46.3917 79.8152 46.65 80.8818 46.65C81.4485 46.65 82.0318 46.5833 82.6318 46.45C83.2485 46.3167 83.8818 46.1167 84.5318 45.85L85.3568 48.275ZM80.3318 38.5C79.5652 38.5 78.9652 38.75 78.5318 39.25C78.1152 39.7333 77.8735 40.4333 77.8068 41.35H82.6068C82.6235 41.2667 82.6318 41.1917 82.6318 41.125C82.6318 41.0417 82.6318 40.9667 82.6318 40.9C82.6318 40.1 82.4068 39.5 81.9568 39.1C81.5068 38.7 80.9652 38.5 80.3318 38.5ZM95.9189 38.95C95.1356 38.95 94.3856 39.075 93.6689 39.325C92.9689 39.5583 92.2939 39.9417 91.6439 40.475V49H88.7689V36.325H91.4939V38.275C92.3439 37.475 93.1023 36.9083 93.7689 36.575C94.4356 36.2417 95.1523 36.075 95.9189 36.075V38.95ZM101.387 33.925H98.3619V30.95H101.387V33.925ZM101.312 49H98.4369V36.325H101.312V49ZM111.473 38.75C111.056 38.75 110.581 38.85 110.048 39.05C109.515 39.25 108.881 39.6417 108.148 40.225V49H105.273V36.325H107.998V38.025C108.781 37.3417 109.523 36.85 110.223 36.55C110.923 36.2333 111.631 36.075 112.348 36.075C113.565 36.075 114.49 36.4667 115.123 37.25C115.756 38.0167 116.073 39.1 116.073 40.5V49H113.198V40.85C113.198 39.45 112.623 38.75 111.473 38.75ZM130.397 50.275C130.397 51.625 129.864 52.675 128.797 53.425C127.747 54.1917 126.281 54.575 124.397 54.575C123.514 54.575 122.581 54.475 121.597 54.275C120.614 54.075 119.706 53.7417 118.872 53.275L119.697 51C120.497 51.4 121.289 51.6833 122.072 51.85C122.856 52.0333 123.622 52.125 124.372 52.125C125.422 52.125 126.222 51.9833 126.772 51.7C127.322 51.4167 127.597 51.0417 127.597 50.575C127.597 49.8583 127.172 49.5 126.322 49.5H123.322C122.506 49.5 121.847 49.3667 121.347 49.1C120.847 48.8333 120.481 48.4917 120.247 48.075C120.014 47.6417 119.897 47.1917 119.897 46.725C119.897 46.2417 119.997 45.7917 120.197 45.375C120.414 44.9417 120.706 44.5417 121.072 44.175C120.472 43.8083 119.989 43.3167 119.622 42.7C119.272 42.0833 119.097 41.3417 119.097 40.475C119.097 39.4917 119.306 38.675 119.722 38.025C120.139 37.375 120.706 36.8917 121.422 36.575C122.156 36.2417 122.964 36.075 123.847 36.075H124.272C124.606 36.075 124.931 36.1 125.247 36.15C125.564 36.1833 125.864 36.2417 126.147 36.325H130.672V38.775L128.172 38.375C128.422 38.6417 128.614 38.975 128.747 39.375C128.897 39.7583 128.972 40.2333 128.972 40.8C128.972 41.65 128.756 42.3833 128.322 43C127.906 43.6 127.339 44.0667 126.622 44.4C125.922 44.7167 125.139 44.875 124.272 44.875H123.847C123.514 44.875 123.197 44.85 122.897 44.8C122.714 45 122.581 45.2083 122.497 45.425C122.414 45.625 122.372 45.8167 122.372 46C122.372 46.5833 122.747 46.875 123.497 46.875H126.547C127.697 46.875 128.622 47.175 129.322 47.775C130.039 48.3583 130.397 49.1917 130.397 50.275ZM124.272 42.525C124.789 42.525 125.239 42.35 125.622 42C126.022 41.65 126.222 41.1417 126.222 40.475C126.222 39.8083 126.022 39.3 125.622 38.95C125.239 38.6 124.789 38.425 124.272 38.425H123.847C123.314 38.425 122.847 38.6 122.447 38.95C122.064 39.3 121.872 39.8083 121.872 40.475C121.872 41.1417 122.064 41.65 122.447 42C122.847 42.35 123.314 42.525 123.847 42.525H124.272ZM142.234 46.475C144.167 46.475 145.134 45.7583 145.134 44.325C145.134 43.7417 144.984 43.2833 144.684 42.95C144.4 42.6167 143.867 42.325 143.084 42.075L141.034 41.4C138.584 40.6 137.359 38.9917 137.359 36.575C137.359 35.175 137.792 34.025 138.659 33.125C139.542 32.2083 140.917 31.75 142.784 31.75C143.567 31.75 144.342 31.8417 145.109 32.025C145.875 32.1917 146.692 32.4667 147.559 32.85L146.634 35.425C145.834 35.1083 145.15 34.8833 144.584 34.75C144.034 34.6 143.467 34.525 142.884 34.525C142.117 34.525 141.509 34.6667 141.059 34.95C140.625 35.2167 140.409 35.7083 140.409 36.425C140.409 36.9583 140.559 37.4 140.859 37.75C141.175 38.0833 141.692 38.3667 142.409 38.6L144.459 39.275C145.692 39.6917 146.617 40.3 147.234 41.1C147.867 41.8833 148.184 42.925 148.184 44.225C148.184 45.725 147.709 46.9417 146.759 47.875C145.809 48.7917 144.317 49.25 142.284 49.25C141.484 49.25 140.65 49.1583 139.784 48.975C138.934 48.775 138 48.4417 136.984 47.975L137.909 45.4C138.842 45.8 139.634 46.0833 140.284 46.25C140.95 46.4 141.6 46.475 142.234 46.475ZM161.473 41.9V43.4C161.473 45.1667 160.99 46.5833 160.023 47.65C159.056 48.7167 157.69 49.25 155.923 49.25C154.156 49.25 152.79 48.7167 151.823 47.65C150.856 46.5833 150.373 45.1667 150.373 43.4V41.9C150.373 40.1333 150.848 38.725 151.798 37.675C152.765 36.6083 154.14 36.075 155.923 36.075C157.706 36.075 159.073 36.6083 160.023 37.675C160.99 38.725 161.473 40.1333 161.473 41.9ZM158.523 41.9C158.523 40.8833 158.298 40.0917 157.848 39.525C157.398 38.9417 156.756 38.65 155.923 38.65C155.09 38.65 154.448 38.9417 153.998 39.525C153.548 40.0917 153.323 40.8833 153.323 41.9V43.4C153.323 44.4167 153.548 45.2167 153.998 45.8C154.448 46.3833 155.09 46.675 155.923 46.675C156.756 46.675 157.398 46.3833 157.848 45.8C158.298 45.2167 158.523 44.4167 158.523 43.4V41.9ZM166.897 41.925V43.4C166.897 44.4667 167.088 45.2667 167.472 45.8C167.855 46.3333 168.472 46.6 169.322 46.6C169.738 46.6 170.205 46.55 170.722 46.45C171.255 46.3333 171.83 46.1583 172.447 45.925L173.272 48.35C172.522 48.65 171.813 48.875 171.147 49.025C170.48 49.175 169.822 49.25 169.172 49.25C167.505 49.25 166.23 48.7167 165.347 47.65C164.463 46.5833 164.022 45.1667 164.022 43.4V41.925C164.022 40.1417 164.463 38.725 165.347 37.675C166.23 36.6083 167.505 36.075 169.172 36.075C169.805 36.075 170.447 36.15 171.097 36.3C171.747 36.45 172.43 36.6667 173.147 36.95L172.322 39.425C171.122 38.9583 170.122 38.725 169.322 38.725C168.472 38.725 167.855 38.9917 167.472 39.525C167.088 40.0417 166.897 40.8417 166.897 41.925ZM178.853 33.925H175.828V30.95H178.853V33.925ZM178.778 49H175.903V36.325H178.778V49ZM192.364 48.275C191.497 48.625 190.68 48.875 189.914 49.025C189.147 49.175 188.422 49.25 187.739 49.25C185.855 49.25 184.43 48.7167 183.464 47.65C182.497 46.5833 182.014 45.1667 182.014 43.4V41.9C182.014 40.7167 182.23 39.6917 182.664 38.825C183.097 37.9583 183.714 37.2833 184.514 36.8C185.314 36.3167 186.255 36.075 187.339 36.075C188.222 36.075 189.047 36.2583 189.814 36.625C190.597 36.975 191.23 37.5333 191.714 38.3C192.214 39.05 192.464 40.0167 192.464 41.2C192.464 41.55 192.439 41.925 192.389 42.325C192.339 42.7083 192.255 43.1167 192.139 43.55H184.789C184.822 44.5833 185.08 45.3583 185.564 45.875C186.047 46.3917 186.822 46.65 187.889 46.65C188.455 46.65 189.039 46.5833 189.639 46.45C190.255 46.3167 190.889 46.1167 191.539 45.85L192.364 48.275ZM187.339 38.5C186.572 38.5 185.972 38.75 185.539 39.25C185.122 39.7333 184.88 40.4333 184.814 41.35H189.614C189.63 41.2667 189.639 41.1917 189.639 41.125C189.639 41.0417 189.639 40.9667 189.639 40.9C189.639 40.1 189.414 39.5 188.964 39.1C188.514 38.7 187.972 38.5 187.339 38.5ZM203.401 48.575C202.967 48.775 202.467 48.9333 201.901 49.05C201.334 49.1833 200.759 49.25 200.176 49.25C199.209 49.25 198.434 49.05 197.851 48.65C197.267 48.25 196.842 47.6917 196.576 46.975C196.326 46.2583 196.201 45.4417 196.201 44.525V38.825H194.151V36.325H196.201V33.025H199.076V36.325H203.026V38.825H199.076V44.525C199.076 45.2917 199.217 45.825 199.501 46.125C199.801 46.4083 200.226 46.55 200.776 46.55C201.042 46.55 201.326 46.525 201.626 46.475C201.942 46.4083 202.292 46.3 202.676 46.15L203.401 48.575ZM210.837 50.25C210.287 51.7833 209.587 52.8833 208.737 53.55C207.887 54.2333 206.721 54.575 205.237 54.575V51.7C206.121 51.6667 206.812 51.4667 207.312 51.1C207.829 50.75 208.212 50.2583 208.462 49.625L208.687 49.05L204.162 36.325H207.012L209.187 42.65L210.037 45.325L210.862 42.65L212.937 36.325H215.787L210.837 50.25Z" fill="white"/>
</svg>
