<svg width="1500" height="778" viewBox="0 0 1280 778" fill="none" xmlns="http://www.w3.org/2000/svg">
<g filter="url(#filter0_d_276_2790)">
<mask id="mask0_276_2790" style="mask-type:luminance" maskUnits="userSpaceOnUse" x="0" y="-87" width="1286" height="857">
<path d="M1285.01 -87H0V770H1285.01V-87Z" fill="white"/>
</mask>
<g mask="url(#mask0_276_2790)">
<g opacity="0.6">
<path d="M969.581 277.868H547.949V493.701H969.581V277.868Z" stroke="url(#paint0_linear_276_2790)" stroke-width="1.3169" stroke-miterlimit="10"/>
<path d="M731.263 128.336H309.636V344.168H731.263V128.336Z" stroke="url(#paint1_linear_276_2790)" stroke-width="1.3169" stroke-miterlimit="10"/>
<path d="M1238.17 -166.499H510.635V205.924H1238.17V-166.499Z" stroke="url(#paint2_linear_276_2790)" stroke-width="2.2722" stroke-miterlimit="10"/>
<path d="M712.632 -245.496H351.939V45.1055H712.632V-245.496Z" stroke="url(#paint3_linear_276_2790)" stroke-width="1.4133" stroke-miterlimit="10"/>
<path d="M382.662 -54.3483H21.9672V236.253H382.662V-54.3483Z" stroke="url(#paint4_linear_276_2790)" stroke-width="1.4133" stroke-miterlimit="10"/>
<path d="M489.983 314.544H129.286V605.145H489.983V314.544Z" stroke="url(#paint5_linear_276_2790)" stroke-width="1.4133" stroke-miterlimit="10"/>
<path d="M791.749 431.632H431.055V722.232H791.749V431.632Z" stroke="url(#paint6_linear_276_2790)" stroke-width="1.4133" stroke-miterlimit="10"/>
<path d="M1035.71 -54.3483H675.006V544.486H1035.71V-54.3483Z" stroke="url(#paint7_linear_276_2790)" stroke-width="2.0288" stroke-miterlimit="10"/>
<path d="M1227.5 378.731H866.785V977.568H1227.5V378.731Z" stroke="url(#paint8_linear_276_2790)" stroke-width="2.0288" stroke-miterlimit="10"/>
<path d="M1227.5 634.77H202.317V814.281H1227.5V634.77Z" stroke="url(#paint9_linear_276_2790)" stroke-width="1.8726" stroke-miterlimit="10"/>
<path d="M1133.17 -321.673H774.272V63.4453H1133.17V-321.673Z" stroke="url(#paint10_linear_276_2790)" stroke-width="1.6229" stroke-miterlimit="10"/>
</g>
<g opacity="0.3">
<path d="M804.03 299.324H563.039V422.687H804.03V299.324Z" stroke="url(#paint11_linear_276_2790)" stroke-width="0.7527" stroke-miterlimit="10"/>
<path d="M667.816 213.855H426.827V337.218H667.816V213.855Z" stroke="url(#paint12_linear_276_2790)" stroke-width="0.7527" stroke-miterlimit="10"/>
<path d="M957.544 45.3369H541.712V258.203H957.544V45.3369Z" stroke="url(#paint13_linear_276_2790)" stroke-width="1.2987" stroke-miterlimit="10"/>
<path d="M657.166 0.184723H451.007V166.283H657.166V0.184723Z" stroke="url(#paint14_linear_276_2790)" stroke-width="0.8078" stroke-miterlimit="10"/>
<path d="M468.567 109.439H262.402V275.538H468.567V109.439Z" stroke="url(#paint15_linear_276_2790)" stroke-width="0.8078" stroke-miterlimit="10"/>
<path d="M529.907 320.287H323.743V486.387H529.907V320.287Z" stroke="url(#paint16_linear_276_2790)" stroke-width="0.8078" stroke-miterlimit="10"/>
<path d="M702.386 387.21H496.228V553.31H702.386V387.21Z" stroke="url(#paint17_linear_276_2790)" stroke-width="0.8078" stroke-miterlimit="10"/>
<path d="M841.824 109.439H635.661V451.714H841.824V109.439Z" stroke="url(#paint18_linear_276_2790)" stroke-width="1.1596" stroke-miterlimit="10"/>
<path d="M951.444 356.973H745.276V699.25H951.444V356.973Z" stroke="url(#paint19_linear_276_2790)" stroke-width="1.1596" stroke-miterlimit="10"/>
<path d="M951.444 503.318H365.487V605.921H951.444V503.318Z" stroke="url(#paint20_linear_276_2790)" stroke-width="1.0704" stroke-miterlimit="10"/>
<path d="M897.527 -43.3562H692.399V176.766H897.527V-43.3562Z" stroke="url(#paint21_linear_276_2790)" stroke-width="0.9276" stroke-miterlimit="10"/>
</g>
<g opacity="0.4">
<path d="M877.171 288.536H545.349V458.395H877.171V288.536Z" stroke="url(#paint22_linear_276_2790)" stroke-width="1.0364" stroke-miterlimit="10"/>
<path d="M689.617 170.854H357.798V340.713H689.617V170.854Z" stroke="url(#paint23_linear_276_2790)" stroke-width="1.0364" stroke-miterlimit="10"/>
<path d="M1088.55 -61.1807H515.985V231.915H1088.55V-61.1807Z" stroke="url(#paint24_linear_276_2790)" stroke-width="1.7882" stroke-miterlimit="10"/>
<path d="M674.956 -123.353H391.09V105.35H674.956V-123.353Z" stroke="url(#paint25_linear_276_2790)" stroke-width="1.1123" stroke-miterlimit="10"/>
<path d="M415.271 27.0817H131.402V255.785H415.271V27.0817Z" stroke="url(#paint26_linear_276_2790)" stroke-width="1.1123" stroke-miterlimit="10"/>
<path d="M499.73 317.4H215.862V546.103H499.73V317.4Z" stroke="url(#paint27_linear_276_2790)" stroke-width="1.1123" stroke-miterlimit="10"/>
<path d="M737.22 409.548H453.354V638.25H737.22V409.548Z" stroke="url(#paint28_linear_276_2790)" stroke-width="1.1123" stroke-miterlimit="10"/>
<path d="M929.215 27.0817H645.343V498.363H929.215V27.0817Z" stroke="url(#paint29_linear_276_2790)" stroke-width="1.5967" stroke-miterlimit="10"/>
<g filter="url(#filter1_i_276_2790)">
<path d="M1080.15 367.914H796.273V839.197H1080.15V367.914Z" stroke="url(#paint30_linear_276_2790)" stroke-width="1.5967" stroke-miterlimit="10"/>
</g>
<path d="M1080.15 569.416H273.337V710.691H1080.15V569.416Z" stroke="url(#paint31_linear_276_2790)" stroke-width="1.4738" stroke-miterlimit="10"/>
<path d="M1005.91 -183.303H723.465V119.786H1005.91V-183.303Z" stroke="url(#paint32_linear_276_2790)" stroke-width="1.2772" stroke-miterlimit="10"/>
</g>
<g opacity="0.5">
<path d="M841.564 368.023H453.843V566.497H841.564V368.023Z" stroke="url(#paint33_linear_276_2790)" stroke-width="1.211" stroke-miterlimit="10"/>
<path d="M622.413 230.515H234.696V428.989H622.413V230.515Z" stroke="url(#paint34_linear_276_2790)" stroke-width="1.211" stroke-miterlimit="10"/>
<path d="M1088.55 -40.6084H419.532V301.864H1088.55V-40.6084Z" stroke="url(#paint35_linear_276_2790)" stroke-width="2.0895" stroke-miterlimit="10"/>
<path d="M605.283 -113.253H273.598V153.979H605.283V-113.253Z" stroke="url(#paint36_linear_276_2790)" stroke-width="1.2996" stroke-miterlimit="10"/>
<path d="M301.852 62.5229H-29.8365V329.755H301.852V62.5229Z" stroke="url(#paint37_linear_276_2790)" stroke-width="1.2996" stroke-miterlimit="10"/>
<path d="M400.54 401.749H68.8515V668.98H400.54V401.749Z" stroke="url(#paint38_linear_276_2790)" stroke-width="1.2996" stroke-miterlimit="10"/>
<path d="M678.036 509.419H346.352V776.649H678.036V509.419Z" stroke="url(#paint39_linear_276_2790)" stroke-width="1.2996" stroke-miterlimit="10"/>
<path d="M902.373 62.5229H570.683V613.198H902.373V62.5229Z" stroke="url(#paint40_linear_276_2790)" stroke-width="1.8656" stroke-miterlimit="10"/>
<path d="M1078.74 460.773H747.037V1011.45H1078.74V460.773Z" stroke="url(#paint41_linear_276_2790)" stroke-width="1.8656" stroke-miterlimit="10"/>
<path d="M1078.74 696.22H136.007V861.295H1078.74V696.22Z" stroke="url(#paint42_linear_276_2790)" stroke-width="1.722" stroke-miterlimit="10"/>
<path d="M991.991 -183.303H661.965V170.843H991.991V-183.303Z" stroke="url(#paint43_linear_276_2790)" stroke-width="1.4923" stroke-miterlimit="10"/>
</g>
<g opacity="0.5">
<path d="M552.411 368.023H164.69V566.497H552.411V368.023Z" stroke="url(#paint44_linear_276_2790)" stroke-width="1.211" stroke-miterlimit="10"/>
<path d="M333.261 230.515H-54.4571V428.989H333.261V230.515Z" stroke="url(#paint45_linear_276_2790)" stroke-width="1.211" stroke-miterlimit="10"/>
<path d="M799.396 -40.6084H130.379V301.864H799.396V-40.6084Z" stroke="url(#paint46_linear_276_2790)" stroke-width="2.0895" stroke-miterlimit="10"/>
<path d="M316.13 -113.253H-15.5548V153.979H316.13V-113.253Z" stroke="url(#paint47_linear_276_2790)" stroke-width="1.2996" stroke-miterlimit="10"/>
<path d="M12.6981 62.5229H-318.99V329.755H12.6981V62.5229Z" stroke="url(#paint48_linear_276_2790)" stroke-width="1.2996" stroke-miterlimit="10"/>
<path d="M111.387 401.749H-220.301V668.98H111.387V401.749Z" stroke="url(#paint49_linear_276_2790)" stroke-width="1.2996" stroke-miterlimit="10"/>
<path d="M388.882 509.419H57.1976V776.649H388.882V509.419Z" stroke="url(#paint50_linear_276_2790)" stroke-width="1.2996" stroke-miterlimit="10"/>
<path d="M613.219 62.5229H281.529V613.198H613.219V62.5229Z" stroke="url(#paint51_linear_276_2790)" stroke-width="1.8656" stroke-miterlimit="10"/>
<path d="M789.584 460.773H457.884V1011.45H789.584V460.773Z" stroke="url(#paint52_linear_276_2790)" stroke-width="1.8656" stroke-miterlimit="10"/>
<path d="M789.583 696.22H-153.147V861.295H789.583V696.22Z" stroke="url(#paint53_linear_276_2790)" stroke-width="1.722" stroke-miterlimit="10"/>
<path d="M702.837 -183.303H372.811V170.843H702.837V-183.303Z" stroke="url(#paint54_linear_276_2790)" stroke-width="1.4923" stroke-miterlimit="10"/>
</g>
<g opacity="0.5">
<path d="M1610.14 368.023H1222.42V566.497H1610.14V368.023Z" stroke="url(#paint55_linear_276_2790)" stroke-width="1.211" stroke-miterlimit="10"/>
<path d="M1390.99 230.515H1003.27V428.989H1390.99V230.515Z" stroke="url(#paint56_linear_276_2790)" stroke-width="1.211" stroke-miterlimit="10"/>
<path d="M1857.13 -40.6085H1188.11V301.864H1857.13V-40.6085Z" stroke="url(#paint57_linear_276_2790)" stroke-width="2.0895" stroke-miterlimit="10"/>
<path d="M1373.86 -113.253H1042.18V153.979H1373.86V-113.253Z" stroke="url(#paint58_linear_276_2790)" stroke-width="1.2996" stroke-miterlimit="10"/>
<path d="M1070.43 62.5229H738.742V329.755H1070.43V62.5229Z" stroke="url(#paint59_linear_276_2790)" stroke-width="1.2996" stroke-miterlimit="10"/>
<path d="M1169.12 401.749H837.43V668.98H1169.12V401.749Z" stroke="url(#paint60_linear_276_2790)" stroke-width="1.2996" stroke-miterlimit="10"/>
<path d="M1446.61 509.419H1114.93V776.649H1446.61V509.419Z" stroke="url(#paint61_linear_276_2790)" stroke-width="1.2996" stroke-miterlimit="10"/>
<path d="M1847.32 696.22H904.586V861.295H1847.32V696.22Z" stroke="url(#paint62_linear_276_2790)" stroke-width="1.722" stroke-miterlimit="10"/>
</g>
<g opacity="0.8">
<path d="M779.622 334.41H350.596V554.032H779.622V334.41Z" stroke="url(#paint63_linear_276_2790)" stroke-width="1.34" stroke-miterlimit="10"/>
<path d="M1022.12 182.255H593.09V401.877H1022.12V182.255Z" stroke="url(#paint64_linear_276_2790)" stroke-width="1.34" stroke-miterlimit="10"/>
<path d="M817.591 -117.749H77.31V261.204H817.591V-117.749Z" stroke="url(#paint65_linear_276_2790)" stroke-width="2.3121" stroke-miterlimit="10"/>
<path d="M979.075 -198.134H612.048V97.5646H979.075V-198.134Z" stroke="url(#paint66_linear_276_2790)" stroke-width="1.4381" stroke-miterlimit="10"/>
<path d="M1314.84 -3.63321H947.811V292.065H1314.84V-3.63321Z" stroke="url(#paint67_linear_276_2790)" stroke-width="1.4381" stroke-miterlimit="10"/>
<path d="M1205.64 371.732H838.605V667.43H1205.64V371.732Z" stroke="url(#paint68_linear_276_2790)" stroke-width="1.4381" stroke-miterlimit="10"/>
<path d="M898.567 490.873H531.544V786.57H898.567V490.873Z" stroke="url(#paint69_linear_276_2790)" stroke-width="1.4381" stroke-miterlimit="10"/>
<path d="M650.332 -3.63321H283.31V605.707H650.332V-3.63321Z" stroke="url(#paint70_linear_276_2790)" stroke-width="2.0644" stroke-miterlimit="10"/>
<path d="M455.191 437.044H88.1683V1046.38H455.191V437.044Z" stroke="url(#paint71_linear_276_2790)" stroke-width="2.0644" stroke-miterlimit="10"/>
<path d="M1131.33 697.574H88.1683V880.233H1131.33V697.574Z" stroke="url(#paint72_linear_276_2790)" stroke-width="1.9055" stroke-miterlimit="10"/>
<path d="M549.326 -275.646H184.152V116.226H549.326V-275.646Z" stroke="url(#paint73_linear_276_2790)" stroke-width="1.6513" stroke-miterlimit="10"/>
</g>
</g>
</g>
<defs>
<filter id="filter0_d_276_2790" x="-4" y="-87" width="1293.01" height="865" filterUnits="userSpaceOnUse" color-interpolation-filters="sRGB">
<feFlood flood-opacity="0" result="BackgroundImageFix"/>
<feColorMatrix in="SourceAlpha" type="matrix" values="0 0 0 0 0 0 0 0 0 0 0 0 0 0 0 0 0 0 127 0" result="hardAlpha"/>
<feOffset dy="4"/>
<feGaussianBlur stdDeviation="2"/>
<feComposite in2="hardAlpha" operator="out"/>
<feColorMatrix type="matrix" values="0 0 0 0 0 0 0 0 0 0 0 0 0 0 0 0 0 0 0.25 0"/>
<feBlend mode="normal" in2="BackgroundImageFix" result="effect1_dropShadow_276_2790"/>
<feBlend mode="normal" in="SourceGraphic" in2="effect1_dropShadow_276_2790" result="shape"/>
</filter>
<filter id="filter1_i_276_2790" x="795.475" y="367.115" width="285.477" height="476.88" filterUnits="userSpaceOnUse" color-interpolation-filters="sRGB">
<feFlood flood-opacity="0" result="BackgroundImageFix"/>
<feBlend mode="normal" in="SourceGraphic" in2="BackgroundImageFix" result="shape"/>
<feColorMatrix in="SourceAlpha" type="matrix" values="0 0 0 0 0 0 0 0 0 0 0 0 0 0 0 0 0 0 127 0" result="hardAlpha"/>
<feOffset dy="4"/>
<feGaussianBlur stdDeviation="2"/>
<feComposite in2="hardAlpha" operator="arithmetic" k2="-1" k3="1"/>
<feColorMatrix type="matrix" values="0 0 0 0 0 0 0 0 0 0 0 0 0 0 0 0 0 0 0.25 0"/>
<feBlend mode="normal" in2="shape" result="effect1_innerShadow_276_2790"/>
</filter>
<linearGradient id="paint0_linear_276_2790" x1="970.286" y1="385.785" x2="547.244" y2="385.785" gradientUnits="userSpaceOnUse">
<stop stop-color="#77C7D4"/>
<stop offset="1" stop-color="#008C8F"/>
</linearGradient>
<linearGradient id="paint1_linear_276_2790" x1="731.968" y1="236.253" x2="308.931" y2="236.253" gradientUnits="userSpaceOnUse">
<stop stop-color="#77C7D4"/>
<stop offset="1" stop-color="#008C8F"/>
</linearGradient>
<linearGradient id="paint2_linear_276_2790" x1="1239.38" y1="19.7128" x2="509.418" y2="19.7128" gradientUnits="userSpaceOnUse">
<stop stop-color="#77C7D4"/>
<stop offset="1" stop-color="#008C8F"/>
</linearGradient>
<linearGradient id="paint3_linear_276_2790" x1="713.389" y1="-100.195" x2="351.183" y2="-100.195" gradientUnits="userSpaceOnUse">
<stop stop-color="#77C7D4"/>
<stop offset="1" stop-color="#008C8F"/>
</linearGradient>
<linearGradient id="paint4_linear_276_2790" x1="383.419" y1="90.9527" x2="21.2101" y2="90.9527" gradientUnits="userSpaceOnUse">
<stop stop-color="#77C7D4"/>
<stop offset="1" stop-color="#008C8F"/>
</linearGradient>
<linearGradient id="paint5_linear_276_2790" x1="490.741" y1="459.845" x2="128.53" y2="459.845" gradientUnits="userSpaceOnUse">
<stop stop-color="#77C7D4"/>
<stop offset="1" stop-color="#008C8F"/>
</linearGradient>
<linearGradient id="paint6_linear_276_2790" x1="792.505" y1="576.932" x2="430.299" y2="576.932" gradientUnits="userSpaceOnUse">
<stop stop-color="#77C7D4"/>
<stop offset="1" stop-color="#008C8F"/>
</linearGradient>
<linearGradient id="paint7_linear_276_2790" x1="1036.8" y1="245.069" x2="673.92" y2="245.069" gradientUnits="userSpaceOnUse">
<stop stop-color="#77C7D4"/>
<stop offset="1" stop-color="#008C8F"/>
</linearGradient>
<linearGradient id="paint8_linear_276_2790" x1="1228.58" y1="678.149" x2="865.699" y2="678.149" gradientUnits="userSpaceOnUse">
<stop stop-color="#77C7D4"/>
<stop offset="1" stop-color="#008C8F"/>
</linearGradient>
<linearGradient id="paint9_linear_276_2790" x1="1228.5" y1="724.525" x2="201.314" y2="724.525" gradientUnits="userSpaceOnUse">
<stop stop-color="#77C7D4"/>
<stop offset="1" stop-color="#008C8F"/>
</linearGradient>
<linearGradient id="paint10_linear_276_2790" x1="1134.03" y1="-129.115" x2="773.403" y2="-129.115" gradientUnits="userSpaceOnUse">
<stop stop-color="#77C7D4"/>
<stop offset="1" stop-color="#008C8F"/>
</linearGradient>
<linearGradient id="paint11_linear_276_2790" x1="804.433" y1="361.005" x2="562.636" y2="361.005" gradientUnits="userSpaceOnUse">
<stop stop-color="#77C7D4"/>
<stop offset="1" stop-color="#008C8F"/>
</linearGradient>
<linearGradient id="paint12_linear_276_2790" x1="668.218" y1="275.537" x2="426.424" y2="275.537" gradientUnits="userSpaceOnUse">
<stop stop-color="#77C7D4"/>
<stop offset="1" stop-color="#008C8F"/>
</linearGradient>
<linearGradient id="paint13_linear_276_2790" x1="958.239" y1="151.77" x2="541.017" y2="151.77" gradientUnits="userSpaceOnUse">
<stop stop-color="#77C7D4"/>
<stop offset="1" stop-color="#008C8F"/>
</linearGradient>
<linearGradient id="paint14_linear_276_2790" x1="657.599" y1="83.2337" x2="450.575" y2="83.2337" gradientUnits="userSpaceOnUse">
<stop stop-color="#77C7D4"/>
<stop offset="1" stop-color="#008C8F"/>
</linearGradient>
<linearGradient id="paint15_linear_276_2790" x1="469" y1="192.488" x2="261.97" y2="192.488" gradientUnits="userSpaceOnUse">
<stop stop-color="#77C7D4"/>
<stop offset="1" stop-color="#008C8F"/>
</linearGradient>
<linearGradient id="paint16_linear_276_2790" x1="530.34" y1="403.337" x2="323.311" y2="403.337" gradientUnits="userSpaceOnUse">
<stop stop-color="#77C7D4"/>
<stop offset="1" stop-color="#008C8F"/>
</linearGradient>
<linearGradient id="paint17_linear_276_2790" x1="702.82" y1="470.26" x2="495.795" y2="470.26" gradientUnits="userSpaceOnUse">
<stop stop-color="#77C7D4"/>
<stop offset="1" stop-color="#008C8F"/>
</linearGradient>
<linearGradient id="paint18_linear_276_2790" x1="842.446" y1="280.577" x2="635.04" y2="280.577" gradientUnits="userSpaceOnUse">
<stop stop-color="#77C7D4"/>
<stop offset="1" stop-color="#008C8F"/>
</linearGradient>
<linearGradient id="paint19_linear_276_2790" x1="952.065" y1="528.112" x2="744.654" y2="528.112" gradientUnits="userSpaceOnUse">
<stop stop-color="#77C7D4"/>
<stop offset="1" stop-color="#008C8F"/>
</linearGradient>
<linearGradient id="paint20_linear_276_2790" x1="952.017" y1="554.619" x2="364.914" y2="554.619" gradientUnits="userSpaceOnUse">
<stop stop-color="#77C7D4"/>
<stop offset="1" stop-color="#008C8F"/>
</linearGradient>
<linearGradient id="paint21_linear_276_2790" x1="898.022" y1="66.7047" x2="691.902" y2="66.7047" gradientUnits="userSpaceOnUse">
<stop stop-color="#77C7D4"/>
<stop offset="1" stop-color="#008C8F"/>
</linearGradient>
<linearGradient id="paint22_linear_276_2790" x1="877.727" y1="373.465" x2="544.794" y2="373.465" gradientUnits="userSpaceOnUse">
<stop stop-color="#77C7D4"/>
<stop offset="1" stop-color="#008C8F"/>
</linearGradient>
<linearGradient id="paint23_linear_276_2790" x1="690.172" y1="255.783" x2="357.243" y2="255.783" gradientUnits="userSpaceOnUse">
<stop stop-color="#77C7D4"/>
<stop offset="1" stop-color="#008C8F"/>
</linearGradient>
<linearGradient id="paint24_linear_276_2790" x1="1089.51" y1="85.3675" x2="515.028" y2="85.3675" gradientUnits="userSpaceOnUse">
<stop stop-color="#77C7D4"/>
<stop offset="1" stop-color="#008C8F"/>
</linearGradient>
<linearGradient id="paint25_linear_276_2790" x1="675.551" y1="-9.00065" x2="390.494" y2="-9.00065" gradientUnits="userSpaceOnUse">
<stop stop-color="#77C7D4"/>
<stop offset="1" stop-color="#008C8F"/>
</linearGradient>
<linearGradient id="paint26_linear_276_2790" x1="415.867" y1="141.433" x2="130.807" y2="141.433" gradientUnits="userSpaceOnUse">
<stop stop-color="#77C7D4"/>
<stop offset="1" stop-color="#008C8F"/>
</linearGradient>
<linearGradient id="paint27_linear_276_2790" x1="500.326" y1="431.752" x2="215.266" y2="431.752" gradientUnits="userSpaceOnUse">
<stop stop-color="#77C7D4"/>
<stop offset="1" stop-color="#008C8F"/>
</linearGradient>
<linearGradient id="paint28_linear_276_2790" x1="737.815" y1="523.899" x2="452.759" y2="523.899" gradientUnits="userSpaceOnUse">
<stop stop-color="#77C7D4"/>
<stop offset="1" stop-color="#008C8F"/>
</linearGradient>
<linearGradient id="paint29_linear_276_2790" x1="930.07" y1="262.722" x2="644.489" y2="262.722" gradientUnits="userSpaceOnUse">
<stop stop-color="#77C7D4"/>
<stop offset="1" stop-color="#008C8F"/>
</linearGradient>
<linearGradient id="paint30_linear_276_2790" x1="1081.01" y1="603.556" x2="795.418" y2="603.556" gradientUnits="userSpaceOnUse">
<stop stop-color="#77C7D4"/>
<stop offset="1" stop-color="#008C8F"/>
</linearGradient>
<linearGradient id="paint31_linear_276_2790" x1="1080.94" y1="640.053" x2="272.548" y2="640.053" gradientUnits="userSpaceOnUse">
<stop stop-color="#77C7D4"/>
<stop offset="1" stop-color="#008C8F"/>
</linearGradient>
<linearGradient id="paint32_linear_276_2790" x1="1006.6" y1="-31.7595" x2="722.781" y2="-31.7595" gradientUnits="userSpaceOnUse">
<stop stop-color="#77C7D4"/>
<stop offset="1" stop-color="#008C8F"/>
</linearGradient>
<linearGradient id="paint33_linear_276_2790" x1="842.213" y1="467.259" x2="453.195" y2="467.259" gradientUnits="userSpaceOnUse">
<stop stop-color="#77C7D4"/>
<stop offset="1" stop-color="#008C8F"/>
</linearGradient>
<linearGradient id="paint34_linear_276_2790" x1="623.062" y1="329.752" x2="234.047" y2="329.752" gradientUnits="userSpaceOnUse">
<stop stop-color="#77C7D4"/>
<stop offset="1" stop-color="#008C8F"/>
</linearGradient>
<linearGradient id="paint35_linear_276_2790" x1="1089.67" y1="130.628" x2="418.414" y2="130.628" gradientUnits="userSpaceOnUse">
<stop stop-color="#77C7D4"/>
<stop offset="1" stop-color="#008C8F"/>
</linearGradient>
<linearGradient id="paint36_linear_276_2790" x1="605.979" y1="20.3627" x2="272.902" y2="20.3627" gradientUnits="userSpaceOnUse">
<stop stop-color="#77C7D4"/>
<stop offset="1" stop-color="#008C8F"/>
</linearGradient>
<linearGradient id="paint37_linear_276_2790" x1="302.548" y1="196.138" x2="-30.5325" y2="196.138" gradientUnits="userSpaceOnUse">
<stop stop-color="#77C7D4"/>
<stop offset="1" stop-color="#008C8F"/>
</linearGradient>
<linearGradient id="paint38_linear_276_2790" x1="401.236" y1="535.365" x2="68.1556" y2="535.365" gradientUnits="userSpaceOnUse">
<stop stop-color="#77C7D4"/>
<stop offset="1" stop-color="#008C8F"/>
</linearGradient>
<linearGradient id="paint39_linear_276_2790" x1="678.731" y1="643.034" x2="345.655" y2="643.034" gradientUnits="userSpaceOnUse">
<stop stop-color="#77C7D4"/>
<stop offset="1" stop-color="#008C8F"/>
</linearGradient>
<linearGradient id="paint40_linear_276_2790" x1="903.372" y1="337.86" x2="569.683" y2="337.86" gradientUnits="userSpaceOnUse">
<stop stop-color="#77C7D4"/>
<stop offset="1" stop-color="#008C8F"/>
</linearGradient>
<linearGradient id="paint41_linear_276_2790" x1="1079.74" y1="736.111" x2="746.038" y2="736.111" gradientUnits="userSpaceOnUse">
<stop stop-color="#77C7D4"/>
<stop offset="1" stop-color="#008C8F"/>
</linearGradient>
<linearGradient id="paint42_linear_276_2790" x1="1079.66" y1="778.757" x2="135.085" y2="778.757" gradientUnits="userSpaceOnUse">
<stop stop-color="#77C7D4"/>
<stop offset="1" stop-color="#008C8F"/>
</linearGradient>
<linearGradient id="paint43_linear_276_2790" x1="992.79" y1="-6.23019" x2="661.165" y2="-6.23019" gradientUnits="userSpaceOnUse">
<stop stop-color="#77C7D4"/>
<stop offset="1" stop-color="#008C8F"/>
</linearGradient>
<linearGradient id="paint44_linear_276_2790" x1="553.059" y1="467.259" x2="164.042" y2="467.259" gradientUnits="userSpaceOnUse">
<stop stop-color="#77C7D4"/>
<stop offset="1" stop-color="#008C8F"/>
</linearGradient>
<linearGradient id="paint45_linear_276_2790" x1="333.909" y1="329.752" x2="-55.1059" y2="329.752" gradientUnits="userSpaceOnUse">
<stop stop-color="#77C7D4"/>
<stop offset="1" stop-color="#008C8F"/>
</linearGradient>
<linearGradient id="paint46_linear_276_2790" x1="800.515" y1="130.628" x2="129.261" y2="130.628" gradientUnits="userSpaceOnUse">
<stop stop-color="#77C7D4"/>
<stop offset="1" stop-color="#008C8F"/>
</linearGradient>
<linearGradient id="paint47_linear_276_2790" x1="316.826" y1="20.3627" x2="-16.251" y2="20.3627" gradientUnits="userSpaceOnUse">
<stop stop-color="#77C7D4"/>
<stop offset="1" stop-color="#008C8F"/>
</linearGradient>
<linearGradient id="paint48_linear_276_2790" x1="13.3943" y1="196.138" x2="-319.686" y2="196.138" gradientUnits="userSpaceOnUse">
<stop stop-color="#77C7D4"/>
<stop offset="1" stop-color="#008C8F"/>
</linearGradient>
<linearGradient id="paint49_linear_276_2790" x1="112.083" y1="535.365" x2="-220.998" y2="535.365" gradientUnits="userSpaceOnUse">
<stop stop-color="#77C7D4"/>
<stop offset="1" stop-color="#008C8F"/>
</linearGradient>
<linearGradient id="paint50_linear_276_2790" x1="389.578" y1="643.034" x2="56.5019" y2="643.034" gradientUnits="userSpaceOnUse">
<stop stop-color="#77C7D4"/>
<stop offset="1" stop-color="#008C8F"/>
</linearGradient>
<linearGradient id="paint51_linear_276_2790" x1="614.218" y1="337.86" x2="280.53" y2="337.86" gradientUnits="userSpaceOnUse">
<stop stop-color="#77C7D4"/>
<stop offset="1" stop-color="#008C8F"/>
</linearGradient>
<linearGradient id="paint52_linear_276_2790" x1="790.583" y1="736.111" x2="456.885" y2="736.111" gradientUnits="userSpaceOnUse">
<stop stop-color="#77C7D4"/>
<stop offset="1" stop-color="#008C8F"/>
</linearGradient>
<linearGradient id="paint53_linear_276_2790" x1="790.506" y1="778.757" x2="-154.069" y2="778.757" gradientUnits="userSpaceOnUse">
<stop stop-color="#77C7D4"/>
<stop offset="1" stop-color="#008C8F"/>
</linearGradient>
<linearGradient id="paint54_linear_276_2790" x1="703.637" y1="-6.23019" x2="372.012" y2="-6.23019" gradientUnits="userSpaceOnUse">
<stop stop-color="#77C7D4"/>
<stop offset="1" stop-color="#008C8F"/>
</linearGradient>
<linearGradient id="paint55_linear_276_2790" x1="1610.79" y1="467.259" x2="1221.77" y2="467.259" gradientUnits="userSpaceOnUse">
<stop stop-color="#77C7D4"/>
<stop offset="1" stop-color="#008C8F"/>
</linearGradient>
<linearGradient id="paint56_linear_276_2790" x1="1391.64" y1="329.752" x2="1002.63" y2="329.752" gradientUnits="userSpaceOnUse">
<stop stop-color="#77C7D4"/>
<stop offset="1" stop-color="#008C8F"/>
</linearGradient>
<linearGradient id="paint57_linear_276_2790" x1="1858.25" y1="130.628" x2="1186.99" y2="130.628" gradientUnits="userSpaceOnUse">
<stop stop-color="#77C7D4"/>
<stop offset="1" stop-color="#008C8F"/>
</linearGradient>
<linearGradient id="paint58_linear_276_2790" x1="1374.56" y1="20.3627" x2="1041.48" y2="20.3627" gradientUnits="userSpaceOnUse">
<stop stop-color="#77C7D4"/>
<stop offset="1" stop-color="#008C8F"/>
</linearGradient>
<linearGradient id="paint59_linear_276_2790" x1="1071.13" y1="196.138" x2="738.047" y2="196.138" gradientUnits="userSpaceOnUse">
<stop stop-color="#77C7D4"/>
<stop offset="1" stop-color="#008C8F"/>
</linearGradient>
<linearGradient id="paint60_linear_276_2790" x1="1169.81" y1="535.365" x2="836.735" y2="535.365" gradientUnits="userSpaceOnUse">
<stop stop-color="#77C7D4"/>
<stop offset="1" stop-color="#008C8F"/>
</linearGradient>
<linearGradient id="paint61_linear_276_2790" x1="1447.31" y1="643.034" x2="1114.23" y2="643.034" gradientUnits="userSpaceOnUse">
<stop stop-color="#77C7D4"/>
<stop offset="1" stop-color="#008C8F"/>
</linearGradient>
<linearGradient id="paint62_linear_276_2790" x1="1848.24" y1="778.757" x2="903.664" y2="778.757" gradientUnits="userSpaceOnUse">
<stop stop-color="#77C7D4"/>
<stop offset="1" stop-color="#008C8F"/>
</linearGradient>
<linearGradient id="paint63_linear_276_2790" x1="349.879" y1="444.221" x2="780.34" y2="444.221" gradientUnits="userSpaceOnUse">
<stop stop-color="#77C7D4"/>
<stop offset="1" stop-color="#008C8F"/>
</linearGradient>
<linearGradient id="paint64_linear_276_2790" x1="592.372" y1="292.066" x2="1022.84" y2="292.066" gradientUnits="userSpaceOnUse">
<stop stop-color="#77C7D4"/>
<stop offset="1" stop-color="#008C8F"/>
</linearGradient>
<linearGradient id="paint65_linear_276_2790" x1="76.0724" y1="71.7274" x2="818.829" y2="71.7274" gradientUnits="userSpaceOnUse">
<stop stop-color="#77C7D4"/>
<stop offset="1" stop-color="#008C8F"/>
</linearGradient>
<linearGradient id="paint66_linear_276_2790" x1="611.277" y1="-50.2843" x2="979.844" y2="-50.2843" gradientUnits="userSpaceOnUse">
<stop stop-color="#77C7D4"/>
<stop offset="1" stop-color="#008C8F"/>
</linearGradient>
<linearGradient id="paint67_linear_276_2790" x1="947.041" y1="144.216" x2="1315.61" y2="144.216" gradientUnits="userSpaceOnUse">
<stop stop-color="#77C7D4"/>
<stop offset="1" stop-color="#008C8F"/>
</linearGradient>
<linearGradient id="paint68_linear_276_2790" x1="837.835" y1="519.581" x2="1206.41" y2="519.581" gradientUnits="userSpaceOnUse">
<stop stop-color="#77C7D4"/>
<stop offset="1" stop-color="#008C8F"/>
</linearGradient>
<linearGradient id="paint69_linear_276_2790" x1="530.774" y1="638.721" x2="899.337" y2="638.721" gradientUnits="userSpaceOnUse">
<stop stop-color="#77C7D4"/>
<stop offset="1" stop-color="#008C8F"/>
</linearGradient>
<linearGradient id="paint70_linear_276_2790" x1="282.206" y1="301.037" x2="651.438" y2="301.037" gradientUnits="userSpaceOnUse">
<stop stop-color="#77C7D4"/>
<stop offset="1" stop-color="#008C8F"/>
</linearGradient>
<linearGradient id="paint71_linear_276_2790" x1="87.063" y1="741.713" x2="456.296" y2="741.713" gradientUnits="userSpaceOnUse">
<stop stop-color="#4394A1"/>
<stop offset="1" stop-color="#008C8F"/>
</linearGradient>
<linearGradient id="paint72_linear_276_2790" x1="87.1481" y1="788.903" x2="1132.35" y2="788.903" gradientUnits="userSpaceOnUse">
<stop stop-color="#77C7D4"/>
<stop offset="1" stop-color="#008C8F"/>
</linearGradient>
<linearGradient id="paint73_linear_276_2790" x1="183.268" y1="-79.7102" x2="550.21" y2="-79.7102" gradientUnits="userSpaceOnUse">
<stop stop-color="#77C7D4"/>
<stop offset="1" stop-color="#008C8F"/>
</linearGradient>
</defs>
</svg>
