<svg width="1294" height="865" viewBox="0 0 1294 865" fill="none" xmlns="http://www.w3.org/2000/svg">
<g filter="url(#filter0_d_601_4184)">
<mask id="mask0_601_4184" style="mask-type:luminance" maskUnits="userSpaceOnUse" x="4" y="0" width="1286" height="857">
<path d="M1289.01 0H4V857H1289.01V0Z" fill="white"/>
</mask>
<g mask="url(#mask0_601_4184)">
<g opacity="0.6">
<path d="M973.581 364.868H551.949V580.701H973.581V364.868Z" stroke="url(#paint0_linear_601_4184)" stroke-width="1.3169" stroke-miterlimit="10"/>
<path d="M735.263 215.336H313.636V431.169H735.263V215.336Z" stroke="url(#paint1_linear_601_4184)" stroke-width="1.3169" stroke-miterlimit="10"/>
<path d="M1242.17 -79.4985H514.635V292.924H1242.17V-79.4985Z" stroke="url(#paint2_linear_601_4184)" stroke-width="2.2722" stroke-miterlimit="10"/>
<path d="M716.632 -158.496H355.939V132.106H716.632V-158.496Z" stroke="url(#paint3_linear_601_4184)" stroke-width="1.4133" stroke-miterlimit="10"/>
<path d="M386.662 32.6519H25.9672V323.253H386.662V32.6519Z" stroke="url(#paint4_linear_601_4184)" stroke-width="1.4133" stroke-miterlimit="10"/>
<path d="M493.983 401.544H133.286V692.145H493.983V401.544Z" stroke="url(#paint5_linear_601_4184)" stroke-width="1.4133" stroke-miterlimit="10"/>
<path d="M795.749 518.632H435.055V809.232H795.749V518.632Z" stroke="url(#paint6_linear_601_4184)" stroke-width="1.4133" stroke-miterlimit="10"/>
<path d="M1039.71 32.6519H679.006V631.486H1039.71V32.6519Z" stroke="url(#paint7_linear_601_4184)" stroke-width="2.0288" stroke-miterlimit="10"/>
<path d="M1231.5 465.731H870.785V1064.57H1231.5V465.731Z" stroke="url(#paint8_linear_601_4184)" stroke-width="2.0288" stroke-miterlimit="10"/>
<path d="M1231.5 721.77H206.317V901.281H1231.5V721.77Z" stroke="url(#paint9_linear_601_4184)" stroke-width="1.8726" stroke-miterlimit="10"/>
<path d="M1137.17 -234.673H778.272V150.445H1137.17V-234.673Z" stroke="url(#paint10_linear_601_4184)" stroke-width="1.6229" stroke-miterlimit="10"/>
</g>
<g opacity="0.3">
<path d="M808.03 386.324H567.039V509.687H808.03V386.324Z" stroke="url(#paint11_linear_601_4184)" stroke-width="0.7527" stroke-miterlimit="10"/>
<path d="M671.816 300.855H430.827V424.218H671.816V300.855Z" stroke="url(#paint12_linear_601_4184)" stroke-width="0.7527" stroke-miterlimit="10"/>
<path d="M961.544 132.337H545.712V345.203H961.544V132.337Z" stroke="url(#paint13_linear_601_4184)" stroke-width="1.2987" stroke-miterlimit="10"/>
<path d="M661.166 87.1848H455.007V253.283H661.166V87.1848Z" stroke="url(#paint14_linear_601_4184)" stroke-width="0.8078" stroke-miterlimit="10"/>
<path d="M472.567 196.439H266.402V362.538H472.567V196.439Z" stroke="url(#paint15_linear_601_4184)" stroke-width="0.8078" stroke-miterlimit="10"/>
<path d="M533.907 407.287H327.743V573.387H533.907V407.287Z" stroke="url(#paint16_linear_601_4184)" stroke-width="0.8078" stroke-miterlimit="10"/>
<path d="M706.386 474.21H500.228V640.31H706.386V474.21Z" stroke="url(#paint17_linear_601_4184)" stroke-width="0.8078" stroke-miterlimit="10"/>
<path d="M845.824 196.439H639.661V538.715H845.824V196.439Z" stroke="url(#paint18_linear_601_4184)" stroke-width="1.1596" stroke-miterlimit="10"/>
<path d="M955.444 443.973H749.276V786.25H955.444V443.973Z" stroke="url(#paint19_linear_601_4184)" stroke-width="1.1596" stroke-miterlimit="10"/>
<path d="M955.444 590.318H369.487V692.921H955.444V590.318Z" stroke="url(#paint20_linear_601_4184)" stroke-width="1.0704" stroke-miterlimit="10"/>
<path d="M901.527 43.6438H696.399V263.766H901.527V43.6438Z" stroke="url(#paint21_linear_601_4184)" stroke-width="0.9276" stroke-miterlimit="10"/>
</g>
<g opacity="0.4">
<path d="M881.171 375.536H549.349V545.395H881.171V375.536Z" stroke="url(#paint22_linear_601_4184)" stroke-width="1.0364" stroke-miterlimit="10"/>
<path d="M693.617 257.854H361.798V427.713H693.617V257.854Z" stroke="url(#paint23_linear_601_4184)" stroke-width="1.0364" stroke-miterlimit="10"/>
<path d="M1092.55 25.8193H519.985V318.915H1092.55V25.8193Z" stroke="url(#paint24_linear_601_4184)" stroke-width="1.7882" stroke-miterlimit="10"/>
<path d="M678.956 -36.3528H395.09V192.351H678.956V-36.3528Z" stroke="url(#paint25_linear_601_4184)" stroke-width="1.1123" stroke-miterlimit="10"/>
<path d="M419.271 114.082H135.402V342.785H419.271V114.082Z" stroke="url(#paint26_linear_601_4184)" stroke-width="1.1123" stroke-miterlimit="10"/>
<path d="M503.73 404.4H219.862V633.103H503.73V404.4Z" stroke="url(#paint27_linear_601_4184)" stroke-width="1.1123" stroke-miterlimit="10"/>
<path d="M741.22 496.548H457.354V725.25H741.22V496.548Z" stroke="url(#paint28_linear_601_4184)" stroke-width="1.1123" stroke-miterlimit="10"/>
<path d="M933.215 114.082H649.343V585.363H933.215V114.082Z" stroke="url(#paint29_linear_601_4184)" stroke-width="1.5967" stroke-miterlimit="10"/>
<g filter="url(#filter1_i_601_4184)">
<path d="M1084.15 454.914H800.273V926.198H1084.15V454.914Z" stroke="url(#paint30_linear_601_4184)" stroke-width="1.5967" stroke-miterlimit="10"/>
</g>
<path d="M1084.15 656.416H277.337V797.691H1084.15V656.416Z" stroke="url(#paint31_linear_601_4184)" stroke-width="1.4738" stroke-miterlimit="10"/>
<path d="M1009.91 -96.3032H727.465V206.786H1009.91V-96.3032Z" stroke="url(#paint32_linear_601_4184)" stroke-width="1.2772" stroke-miterlimit="10"/>
</g>
<g opacity="0.5">
<path d="M845.564 455.023H457.843V653.497H845.564V455.023Z" stroke="url(#paint33_linear_601_4184)" stroke-width="1.211" stroke-miterlimit="10"/>
<path d="M626.413 317.515H238.696V515.989H626.413V317.515Z" stroke="url(#paint34_linear_601_4184)" stroke-width="1.211" stroke-miterlimit="10"/>
<path d="M1092.55 46.3916H423.532V388.864H1092.55V46.3916Z" stroke="url(#paint35_linear_601_4184)" stroke-width="2.0895" stroke-miterlimit="10"/>
<path d="M609.283 -26.2532H277.598V240.979H609.283V-26.2532Z" stroke="url(#paint36_linear_601_4184)" stroke-width="1.2996" stroke-miterlimit="10"/>
<path d="M305.852 149.523H-25.8365V416.755H305.852V149.523Z" stroke="url(#paint37_linear_601_4184)" stroke-width="1.2996" stroke-miterlimit="10"/>
<path d="M404.54 488.749H72.8515V755.98H404.54V488.749Z" stroke="url(#paint38_linear_601_4184)" stroke-width="1.2996" stroke-miterlimit="10"/>
<path d="M682.036 596.419H350.352V863.649H682.036V596.419Z" stroke="url(#paint39_linear_601_4184)" stroke-width="1.2996" stroke-miterlimit="10"/>
<path d="M906.373 149.523H574.683V700.198H906.373V149.523Z" stroke="url(#paint40_linear_601_4184)" stroke-width="1.8656" stroke-miterlimit="10"/>
<path d="M1082.74 547.773H751.037V1098.45H1082.74V547.773Z" stroke="url(#paint41_linear_601_4184)" stroke-width="1.8656" stroke-miterlimit="10"/>
<path d="M1082.74 783.22H140.007V948.295H1082.74V783.22Z" stroke="url(#paint42_linear_601_4184)" stroke-width="1.722" stroke-miterlimit="10"/>
<path d="M995.991 -96.3032H665.965V257.843H995.991V-96.3032Z" stroke="url(#paint43_linear_601_4184)" stroke-width="1.4923" stroke-miterlimit="10"/>
</g>
<g opacity="0.5">
<path d="M556.411 455.023H168.69V653.497H556.411V455.023Z" stroke="url(#paint44_linear_601_4184)" stroke-width="1.211" stroke-miterlimit="10"/>
<path d="M337.261 317.515H-50.4571V515.989H337.261V317.515Z" stroke="url(#paint45_linear_601_4184)" stroke-width="1.211" stroke-miterlimit="10"/>
<path d="M803.396 46.3916H134.379V388.864H803.396V46.3916Z" stroke="url(#paint46_linear_601_4184)" stroke-width="2.0895" stroke-miterlimit="10"/>
<path d="M320.13 -26.2532H-11.5548V240.979H320.13V-26.2532Z" stroke="url(#paint47_linear_601_4184)" stroke-width="1.2996" stroke-miterlimit="10"/>
<path d="M16.6981 149.523H-314.99V416.755H16.6981V149.523Z" stroke="url(#paint48_linear_601_4184)" stroke-width="1.2996" stroke-miterlimit="10"/>
<path d="M115.387 488.749H-216.301V755.98H115.387V488.749Z" stroke="url(#paint49_linear_601_4184)" stroke-width="1.2996" stroke-miterlimit="10"/>
<path d="M392.882 596.419H61.1976V863.649H392.882V596.419Z" stroke="url(#paint50_linear_601_4184)" stroke-width="1.2996" stroke-miterlimit="10"/>
<path d="M617.219 149.523H285.529V700.198H617.219V149.523Z" stroke="url(#paint51_linear_601_4184)" stroke-width="1.8656" stroke-miterlimit="10"/>
<path d="M793.584 547.773H461.884V1098.45H793.584V547.773Z" stroke="url(#paint52_linear_601_4184)" stroke-width="1.8656" stroke-miterlimit="10"/>
<path d="M793.583 783.22H-149.147V948.295H793.583V783.22Z" stroke="url(#paint53_linear_601_4184)" stroke-width="1.722" stroke-miterlimit="10"/>
<path d="M706.837 -96.3032H376.811V257.843H706.837V-96.3032Z" stroke="url(#paint54_linear_601_4184)" stroke-width="1.4923" stroke-miterlimit="10"/>
</g>
<g opacity="0.5">
<path d="M1614.14 455.023H1226.42V653.497H1614.14V455.023Z" stroke="url(#paint55_linear_601_4184)" stroke-width="1.211" stroke-miterlimit="10"/>
<path d="M1394.99 317.515H1007.27V515.989H1394.99V317.515Z" stroke="url(#paint56_linear_601_4184)" stroke-width="1.211" stroke-miterlimit="10"/>
<path d="M1861.13 46.3916H1192.11V388.864H1861.13V46.3916Z" stroke="url(#paint57_linear_601_4184)" stroke-width="2.0895" stroke-miterlimit="10"/>
<path d="M1377.86 -26.2532H1046.18V240.979H1377.86V-26.2532Z" stroke="url(#paint58_linear_601_4184)" stroke-width="1.2996" stroke-miterlimit="10"/>
<path d="M1074.43 149.523H742.742V416.755H1074.43V149.523Z" stroke="url(#paint59_linear_601_4184)" stroke-width="1.2996" stroke-miterlimit="10"/>
<path d="M1173.12 488.749H841.43V755.98H1173.12V488.749Z" stroke="url(#paint60_linear_601_4184)" stroke-width="1.2996" stroke-miterlimit="10"/>
<path d="M1450.61 596.419H1118.93V863.649H1450.61V596.419Z" stroke="url(#paint61_linear_601_4184)" stroke-width="1.2996" stroke-miterlimit="10"/>
<path d="M1851.32 783.22H908.586V948.295H1851.32V783.22Z" stroke="url(#paint62_linear_601_4184)" stroke-width="1.722" stroke-miterlimit="10"/>
</g>
<g opacity="0.8">
<path d="M783.622 421.411H354.596V641.032H783.622V421.411Z" stroke="url(#paint63_linear_601_4184)" stroke-width="1.34" stroke-miterlimit="10"/>
<path d="M1026.12 269.256H597.09V488.877H1026.12V269.256Z" stroke="url(#paint64_linear_601_4184)" stroke-width="1.34" stroke-miterlimit="10"/>
<path d="M821.591 -30.749H81.31V348.205H821.591V-30.749Z" stroke="url(#paint65_linear_601_4184)" stroke-width="2.3121" stroke-miterlimit="10"/>
<path d="M983.075 -111.134H616.048V184.565H983.075V-111.134Z" stroke="url(#paint66_linear_601_4184)" stroke-width="1.4381" stroke-miterlimit="10"/>
<path d="M1318.84 83.3669H951.811V379.065H1318.84V83.3669Z" stroke="url(#paint67_linear_601_4184)" stroke-width="1.4381" stroke-miterlimit="10"/>
<path d="M1209.64 458.732H842.605V754.43H1209.64V458.732Z" stroke="url(#paint68_linear_601_4184)" stroke-width="1.4381" stroke-miterlimit="10"/>
<path d="M902.567 577.873H535.544V873.57H902.567V577.873Z" stroke="url(#paint69_linear_601_4184)" stroke-width="1.4381" stroke-miterlimit="10"/>
<path d="M654.332 83.3669H287.31V692.707H654.332V83.3669Z" stroke="url(#paint70_linear_601_4184)" stroke-width="2.0644" stroke-miterlimit="10"/>
<path d="M459.191 524.044H92.1683V1133.38H459.191V524.044Z" stroke="url(#paint71_linear_601_4184)" stroke-width="2.0644" stroke-miterlimit="10"/>
<path d="M1135.33 784.574H92.1683V967.233H1135.33V784.574Z" stroke="url(#paint72_linear_601_4184)" stroke-width="1.9055" stroke-miterlimit="10"/>
<path d="M553.326 -188.646H188.152V203.226H553.326V-188.646Z" stroke="url(#paint73_linear_601_4184)" stroke-width="1.6513" stroke-miterlimit="10"/>
</g>
</g>
</g>
<defs>
<filter id="filter0_d_601_4184" x="0" y="0" width="1293.01" height="865" filterUnits="userSpaceOnUse" color-interpolation-filters="sRGB">
<feFlood flood-opacity="0" result="BackgroundImageFix"/>
<feColorMatrix in="SourceAlpha" type="matrix" values="0 0 0 0 0 0 0 0 0 0 0 0 0 0 0 0 0 0 127 0" result="hardAlpha"/>
<feOffset dy="4"/>
<feGaussianBlur stdDeviation="2"/>
<feComposite in2="hardAlpha" operator="out"/>
<feColorMatrix type="matrix" values="0 0 0 0 0 0 0 0 0 0 0 0 0 0 0 0 0 0 0.25 0"/>
<feBlend mode="normal" in2="BackgroundImageFix" result="effect1_dropShadow_601_4184"/>
<feBlend mode="normal" in="SourceGraphic" in2="effect1_dropShadow_601_4184" result="shape"/>
</filter>
<filter id="filter1_i_601_4184" x="799.475" y="454.116" width="285.477" height="476.88" filterUnits="userSpaceOnUse" color-interpolation-filters="sRGB">
<feFlood flood-opacity="0" result="BackgroundImageFix"/>
<feBlend mode="normal" in="SourceGraphic" in2="BackgroundImageFix" result="shape"/>
<feColorMatrix in="SourceAlpha" type="matrix" values="0 0 0 0 0 0 0 0 0 0 0 0 0 0 0 0 0 0 127 0" result="hardAlpha"/>
<feOffset dy="4"/>
<feGaussianBlur stdDeviation="2"/>
<feComposite in2="hardAlpha" operator="arithmetic" k2="-1" k3="1"/>
<feColorMatrix type="matrix" values="0 0 0 0 0 0 0 0 0 0 0 0 0 0 0 0 0 0 0.25 0"/>
<feBlend mode="normal" in2="shape" result="effect1_innerShadow_601_4184"/>
</filter>
<linearGradient id="paint0_linear_601_4184" x1="974.286" y1="472.785" x2="551.244" y2="472.785" gradientUnits="userSpaceOnUse">
<stop stop-color="#77C7D4"/>
<stop offset="1" stop-color="#008C8F"/>
</linearGradient>
<linearGradient id="paint1_linear_601_4184" x1="735.968" y1="323.253" x2="312.931" y2="323.253" gradientUnits="userSpaceOnUse">
<stop stop-color="#77C7D4"/>
<stop offset="1" stop-color="#008C8F"/>
</linearGradient>
<linearGradient id="paint2_linear_601_4184" x1="1243.38" y1="106.713" x2="513.418" y2="106.713" gradientUnits="userSpaceOnUse">
<stop stop-color="#77C7D4"/>
<stop offset="1" stop-color="#008C8F"/>
</linearGradient>
<linearGradient id="paint3_linear_601_4184" x1="717.389" y1="-13.1951" x2="355.183" y2="-13.1951" gradientUnits="userSpaceOnUse">
<stop stop-color="#77C7D4"/>
<stop offset="1" stop-color="#008C8F"/>
</linearGradient>
<linearGradient id="paint4_linear_601_4184" x1="387.419" y1="177.953" x2="25.2101" y2="177.953" gradientUnits="userSpaceOnUse">
<stop stop-color="#77C7D4"/>
<stop offset="1" stop-color="#008C8F"/>
</linearGradient>
<linearGradient id="paint5_linear_601_4184" x1="494.741" y1="546.845" x2="132.53" y2="546.845" gradientUnits="userSpaceOnUse">
<stop stop-color="#77C7D4"/>
<stop offset="1" stop-color="#008C8F"/>
</linearGradient>
<linearGradient id="paint6_linear_601_4184" x1="796.505" y1="663.932" x2="434.299" y2="663.932" gradientUnits="userSpaceOnUse">
<stop stop-color="#77C7D4"/>
<stop offset="1" stop-color="#008C8F"/>
</linearGradient>
<linearGradient id="paint7_linear_601_4184" x1="1040.8" y1="332.069" x2="677.92" y2="332.069" gradientUnits="userSpaceOnUse">
<stop stop-color="#77C7D4"/>
<stop offset="1" stop-color="#008C8F"/>
</linearGradient>
<linearGradient id="paint8_linear_601_4184" x1="1232.58" y1="765.149" x2="869.699" y2="765.149" gradientUnits="userSpaceOnUse">
<stop stop-color="#77C7D4"/>
<stop offset="1" stop-color="#008C8F"/>
</linearGradient>
<linearGradient id="paint9_linear_601_4184" x1="1232.5" y1="811.525" x2="205.314" y2="811.525" gradientUnits="userSpaceOnUse">
<stop stop-color="#77C7D4"/>
<stop offset="1" stop-color="#008C8F"/>
</linearGradient>
<linearGradient id="paint10_linear_601_4184" x1="1138.03" y1="-42.1144" x2="777.403" y2="-42.1144" gradientUnits="userSpaceOnUse">
<stop stop-color="#77C7D4"/>
<stop offset="1" stop-color="#008C8F"/>
</linearGradient>
<linearGradient id="paint11_linear_601_4184" x1="808.433" y1="448.005" x2="566.636" y2="448.005" gradientUnits="userSpaceOnUse">
<stop stop-color="#77C7D4"/>
<stop offset="1" stop-color="#008C8F"/>
</linearGradient>
<linearGradient id="paint12_linear_601_4184" x1="672.218" y1="362.537" x2="430.424" y2="362.537" gradientUnits="userSpaceOnUse">
<stop stop-color="#77C7D4"/>
<stop offset="1" stop-color="#008C8F"/>
</linearGradient>
<linearGradient id="paint13_linear_601_4184" x1="962.239" y1="238.77" x2="545.017" y2="238.77" gradientUnits="userSpaceOnUse">
<stop stop-color="#77C7D4"/>
<stop offset="1" stop-color="#008C8F"/>
</linearGradient>
<linearGradient id="paint14_linear_601_4184" x1="661.599" y1="170.234" x2="454.575" y2="170.234" gradientUnits="userSpaceOnUse">
<stop stop-color="#77C7D4"/>
<stop offset="1" stop-color="#008C8F"/>
</linearGradient>
<linearGradient id="paint15_linear_601_4184" x1="473" y1="279.488" x2="265.97" y2="279.488" gradientUnits="userSpaceOnUse">
<stop stop-color="#77C7D4"/>
<stop offset="1" stop-color="#008C8F"/>
</linearGradient>
<linearGradient id="paint16_linear_601_4184" x1="534.34" y1="490.337" x2="327.311" y2="490.337" gradientUnits="userSpaceOnUse">
<stop stop-color="#77C7D4"/>
<stop offset="1" stop-color="#008C8F"/>
</linearGradient>
<linearGradient id="paint17_linear_601_4184" x1="706.82" y1="557.26" x2="499.795" y2="557.26" gradientUnits="userSpaceOnUse">
<stop stop-color="#77C7D4"/>
<stop offset="1" stop-color="#008C8F"/>
</linearGradient>
<linearGradient id="paint18_linear_601_4184" x1="846.446" y1="367.577" x2="639.04" y2="367.577" gradientUnits="userSpaceOnUse">
<stop stop-color="#77C7D4"/>
<stop offset="1" stop-color="#008C8F"/>
</linearGradient>
<linearGradient id="paint19_linear_601_4184" x1="956.065" y1="615.112" x2="748.654" y2="615.112" gradientUnits="userSpaceOnUse">
<stop stop-color="#77C7D4"/>
<stop offset="1" stop-color="#008C8F"/>
</linearGradient>
<linearGradient id="paint20_linear_601_4184" x1="956.017" y1="641.619" x2="368.914" y2="641.619" gradientUnits="userSpaceOnUse">
<stop stop-color="#77C7D4"/>
<stop offset="1" stop-color="#008C8F"/>
</linearGradient>
<linearGradient id="paint21_linear_601_4184" x1="902.022" y1="153.705" x2="695.902" y2="153.705" gradientUnits="userSpaceOnUse">
<stop stop-color="#77C7D4"/>
<stop offset="1" stop-color="#008C8F"/>
</linearGradient>
<linearGradient id="paint22_linear_601_4184" x1="881.727" y1="460.465" x2="548.794" y2="460.465" gradientUnits="userSpaceOnUse">
<stop stop-color="#77C7D4"/>
<stop offset="1" stop-color="#008C8F"/>
</linearGradient>
<linearGradient id="paint23_linear_601_4184" x1="694.172" y1="342.783" x2="361.243" y2="342.783" gradientUnits="userSpaceOnUse">
<stop stop-color="#77C7D4"/>
<stop offset="1" stop-color="#008C8F"/>
</linearGradient>
<linearGradient id="paint24_linear_601_4184" x1="1093.51" y1="172.368" x2="519.028" y2="172.368" gradientUnits="userSpaceOnUse">
<stop stop-color="#77C7D4"/>
<stop offset="1" stop-color="#008C8F"/>
</linearGradient>
<linearGradient id="paint25_linear_601_4184" x1="679.551" y1="77.9994" x2="394.494" y2="77.9994" gradientUnits="userSpaceOnUse">
<stop stop-color="#77C7D4"/>
<stop offset="1" stop-color="#008C8F"/>
</linearGradient>
<linearGradient id="paint26_linear_601_4184" x1="419.867" y1="228.433" x2="134.807" y2="228.433" gradientUnits="userSpaceOnUse">
<stop stop-color="#77C7D4"/>
<stop offset="1" stop-color="#008C8F"/>
</linearGradient>
<linearGradient id="paint27_linear_601_4184" x1="504.326" y1="518.752" x2="219.266" y2="518.752" gradientUnits="userSpaceOnUse">
<stop stop-color="#77C7D4"/>
<stop offset="1" stop-color="#008C8F"/>
</linearGradient>
<linearGradient id="paint28_linear_601_4184" x1="741.815" y1="610.899" x2="456.759" y2="610.899" gradientUnits="userSpaceOnUse">
<stop stop-color="#77C7D4"/>
<stop offset="1" stop-color="#008C8F"/>
</linearGradient>
<linearGradient id="paint29_linear_601_4184" x1="934.07" y1="349.722" x2="648.489" y2="349.722" gradientUnits="userSpaceOnUse">
<stop stop-color="#77C7D4"/>
<stop offset="1" stop-color="#008C8F"/>
</linearGradient>
<linearGradient id="paint30_linear_601_4184" x1="1085.01" y1="690.556" x2="799.418" y2="690.556" gradientUnits="userSpaceOnUse">
<stop stop-color="#77C7D4"/>
<stop offset="1" stop-color="#008C8F"/>
</linearGradient>
<linearGradient id="paint31_linear_601_4184" x1="1084.94" y1="727.053" x2="276.548" y2="727.053" gradientUnits="userSpaceOnUse">
<stop stop-color="#77C7D4"/>
<stop offset="1" stop-color="#008C8F"/>
</linearGradient>
<linearGradient id="paint32_linear_601_4184" x1="1010.6" y1="55.2405" x2="726.781" y2="55.2405" gradientUnits="userSpaceOnUse">
<stop stop-color="#77C7D4"/>
<stop offset="1" stop-color="#008C8F"/>
</linearGradient>
<linearGradient id="paint33_linear_601_4184" x1="846.213" y1="554.259" x2="457.195" y2="554.259" gradientUnits="userSpaceOnUse">
<stop stop-color="#77C7D4"/>
<stop offset="1" stop-color="#008C8F"/>
</linearGradient>
<linearGradient id="paint34_linear_601_4184" x1="627.062" y1="416.752" x2="238.047" y2="416.752" gradientUnits="userSpaceOnUse">
<stop stop-color="#77C7D4"/>
<stop offset="1" stop-color="#008C8F"/>
</linearGradient>
<linearGradient id="paint35_linear_601_4184" x1="1093.67" y1="217.628" x2="422.414" y2="217.628" gradientUnits="userSpaceOnUse">
<stop stop-color="#77C7D4"/>
<stop offset="1" stop-color="#008C8F"/>
</linearGradient>
<linearGradient id="paint36_linear_601_4184" x1="609.979" y1="107.363" x2="276.902" y2="107.363" gradientUnits="userSpaceOnUse">
<stop stop-color="#77C7D4"/>
<stop offset="1" stop-color="#008C8F"/>
</linearGradient>
<linearGradient id="paint37_linear_601_4184" x1="306.548" y1="283.138" x2="-26.5325" y2="283.138" gradientUnits="userSpaceOnUse">
<stop stop-color="#77C7D4"/>
<stop offset="1" stop-color="#008C8F"/>
</linearGradient>
<linearGradient id="paint38_linear_601_4184" x1="405.236" y1="622.365" x2="72.1556" y2="622.365" gradientUnits="userSpaceOnUse">
<stop stop-color="#77C7D4"/>
<stop offset="1" stop-color="#008C8F"/>
</linearGradient>
<linearGradient id="paint39_linear_601_4184" x1="682.731" y1="730.034" x2="349.655" y2="730.034" gradientUnits="userSpaceOnUse">
<stop stop-color="#77C7D4"/>
<stop offset="1" stop-color="#008C8F"/>
</linearGradient>
<linearGradient id="paint40_linear_601_4184" x1="907.372" y1="424.86" x2="573.683" y2="424.86" gradientUnits="userSpaceOnUse">
<stop stop-color="#77C7D4"/>
<stop offset="1" stop-color="#008C8F"/>
</linearGradient>
<linearGradient id="paint41_linear_601_4184" x1="1083.74" y1="823.111" x2="750.038" y2="823.111" gradientUnits="userSpaceOnUse">
<stop stop-color="#77C7D4"/>
<stop offset="1" stop-color="#008C8F"/>
</linearGradient>
<linearGradient id="paint42_linear_601_4184" x1="1083.66" y1="865.757" x2="139.085" y2="865.757" gradientUnits="userSpaceOnUse">
<stop stop-color="#77C7D4"/>
<stop offset="1" stop-color="#008C8F"/>
</linearGradient>
<linearGradient id="paint43_linear_601_4184" x1="996.79" y1="80.7698" x2="665.165" y2="80.7698" gradientUnits="userSpaceOnUse">
<stop stop-color="#77C7D4"/>
<stop offset="1" stop-color="#008C8F"/>
</linearGradient>
<linearGradient id="paint44_linear_601_4184" x1="557.059" y1="554.259" x2="168.042" y2="554.259" gradientUnits="userSpaceOnUse">
<stop stop-color="#77C7D4"/>
<stop offset="1" stop-color="#008C8F"/>
</linearGradient>
<linearGradient id="paint45_linear_601_4184" x1="337.909" y1="416.752" x2="-51.1059" y2="416.752" gradientUnits="userSpaceOnUse">
<stop stop-color="#77C7D4"/>
<stop offset="1" stop-color="#008C8F"/>
</linearGradient>
<linearGradient id="paint46_linear_601_4184" x1="804.515" y1="217.628" x2="133.261" y2="217.628" gradientUnits="userSpaceOnUse">
<stop stop-color="#77C7D4"/>
<stop offset="1" stop-color="#008C8F"/>
</linearGradient>
<linearGradient id="paint47_linear_601_4184" x1="320.826" y1="107.363" x2="-12.251" y2="107.363" gradientUnits="userSpaceOnUse">
<stop stop-color="#77C7D4"/>
<stop offset="1" stop-color="#008C8F"/>
</linearGradient>
<linearGradient id="paint48_linear_601_4184" x1="17.3943" y1="283.138" x2="-315.686" y2="283.138" gradientUnits="userSpaceOnUse">
<stop stop-color="#77C7D4"/>
<stop offset="1" stop-color="#008C8F"/>
</linearGradient>
<linearGradient id="paint49_linear_601_4184" x1="116.083" y1="622.365" x2="-216.998" y2="622.365" gradientUnits="userSpaceOnUse">
<stop stop-color="#77C7D4"/>
<stop offset="1" stop-color="#008C8F"/>
</linearGradient>
<linearGradient id="paint50_linear_601_4184" x1="393.578" y1="730.034" x2="60.5019" y2="730.034" gradientUnits="userSpaceOnUse">
<stop stop-color="#77C7D4"/>
<stop offset="1" stop-color="#008C8F"/>
</linearGradient>
<linearGradient id="paint51_linear_601_4184" x1="618.218" y1="424.86" x2="284.53" y2="424.86" gradientUnits="userSpaceOnUse">
<stop stop-color="#77C7D4"/>
<stop offset="1" stop-color="#008C8F"/>
</linearGradient>
<linearGradient id="paint52_linear_601_4184" x1="794.583" y1="823.111" x2="460.885" y2="823.111" gradientUnits="userSpaceOnUse">
<stop stop-color="#77C7D4"/>
<stop offset="1" stop-color="#008C8F"/>
</linearGradient>
<linearGradient id="paint53_linear_601_4184" x1="794.506" y1="865.757" x2="-150.069" y2="865.757" gradientUnits="userSpaceOnUse">
<stop stop-color="#77C7D4"/>
<stop offset="1" stop-color="#008C8F"/>
</linearGradient>
<linearGradient id="paint54_linear_601_4184" x1="707.637" y1="80.7698" x2="376.012" y2="80.7698" gradientUnits="userSpaceOnUse">
<stop stop-color="#77C7D4"/>
<stop offset="1" stop-color="#008C8F"/>
</linearGradient>
<linearGradient id="paint55_linear_601_4184" x1="1614.79" y1="554.259" x2="1225.77" y2="554.259" gradientUnits="userSpaceOnUse">
<stop stop-color="#77C7D4"/>
<stop offset="1" stop-color="#008C8F"/>
</linearGradient>
<linearGradient id="paint56_linear_601_4184" x1="1395.64" y1="416.752" x2="1006.63" y2="416.752" gradientUnits="userSpaceOnUse">
<stop stop-color="#77C7D4"/>
<stop offset="1" stop-color="#008C8F"/>
</linearGradient>
<linearGradient id="paint57_linear_601_4184" x1="1862.25" y1="217.628" x2="1190.99" y2="217.628" gradientUnits="userSpaceOnUse">
<stop stop-color="#77C7D4"/>
<stop offset="1" stop-color="#008C8F"/>
</linearGradient>
<linearGradient id="paint58_linear_601_4184" x1="1378.56" y1="107.363" x2="1045.48" y2="107.363" gradientUnits="userSpaceOnUse">
<stop stop-color="#77C7D4"/>
<stop offset="1" stop-color="#008C8F"/>
</linearGradient>
<linearGradient id="paint59_linear_601_4184" x1="1075.13" y1="283.138" x2="742.047" y2="283.138" gradientUnits="userSpaceOnUse">
<stop stop-color="#77C7D4"/>
<stop offset="1" stop-color="#008C8F"/>
</linearGradient>
<linearGradient id="paint60_linear_601_4184" x1="1173.81" y1="622.365" x2="840.735" y2="622.365" gradientUnits="userSpaceOnUse">
<stop stop-color="#77C7D4"/>
<stop offset="1" stop-color="#008C8F"/>
</linearGradient>
<linearGradient id="paint61_linear_601_4184" x1="1451.31" y1="730.034" x2="1118.23" y2="730.034" gradientUnits="userSpaceOnUse">
<stop stop-color="#77C7D4"/>
<stop offset="1" stop-color="#008C8F"/>
</linearGradient>
<linearGradient id="paint62_linear_601_4184" x1="1852.24" y1="865.757" x2="907.664" y2="865.757" gradientUnits="userSpaceOnUse">
<stop stop-color="#77C7D4"/>
<stop offset="1" stop-color="#008C8F"/>
</linearGradient>
<linearGradient id="paint63_linear_601_4184" x1="353.879" y1="531.221" x2="784.34" y2="531.221" gradientUnits="userSpaceOnUse">
<stop stop-color="#77C7D4"/>
<stop offset="1" stop-color="#008C8F"/>
</linearGradient>
<linearGradient id="paint64_linear_601_4184" x1="596.372" y1="379.066" x2="1026.84" y2="379.066" gradientUnits="userSpaceOnUse">
<stop stop-color="#77C7D4"/>
<stop offset="1" stop-color="#008C8F"/>
</linearGradient>
<linearGradient id="paint65_linear_601_4184" x1="80.0724" y1="158.727" x2="822.829" y2="158.727" gradientUnits="userSpaceOnUse">
<stop stop-color="#77C7D4"/>
<stop offset="1" stop-color="#008C8F"/>
</linearGradient>
<linearGradient id="paint66_linear_601_4184" x1="615.277" y1="36.7158" x2="983.844" y2="36.7158" gradientUnits="userSpaceOnUse">
<stop stop-color="#77C7D4"/>
<stop offset="1" stop-color="#008C8F"/>
</linearGradient>
<linearGradient id="paint67_linear_601_4184" x1="951.041" y1="231.216" x2="1319.61" y2="231.216" gradientUnits="userSpaceOnUse">
<stop stop-color="#77C7D4"/>
<stop offset="1" stop-color="#008C8F"/>
</linearGradient>
<linearGradient id="paint68_linear_601_4184" x1="841.835" y1="606.581" x2="1210.41" y2="606.581" gradientUnits="userSpaceOnUse">
<stop stop-color="#77C7D4"/>
<stop offset="1" stop-color="#008C8F"/>
</linearGradient>
<linearGradient id="paint69_linear_601_4184" x1="534.774" y1="725.721" x2="903.337" y2="725.721" gradientUnits="userSpaceOnUse">
<stop stop-color="#77C7D4"/>
<stop offset="1" stop-color="#008C8F"/>
</linearGradient>
<linearGradient id="paint70_linear_601_4184" x1="286.206" y1="388.037" x2="655.438" y2="388.037" gradientUnits="userSpaceOnUse">
<stop stop-color="#77C7D4"/>
<stop offset="1" stop-color="#008C8F"/>
</linearGradient>
<linearGradient id="paint71_linear_601_4184" x1="91.063" y1="828.713" x2="460.296" y2="828.713" gradientUnits="userSpaceOnUse">
<stop stop-color="#4394A1"/>
<stop offset="1" stop-color="#008C8F"/>
</linearGradient>
<linearGradient id="paint72_linear_601_4184" x1="91.1481" y1="875.903" x2="1136.35" y2="875.903" gradientUnits="userSpaceOnUse">
<stop stop-color="#77C7D4"/>
<stop offset="1" stop-color="#008C8F"/>
</linearGradient>
<linearGradient id="paint73_linear_601_4184" x1="187.268" y1="7.2899" x2="554.21" y2="7.2899" gradientUnits="userSpaceOnUse">
<stop stop-color="#77C7D4"/>
<stop offset="1" stop-color="#008C8F"/>
</linearGradient>
</defs>
</svg>
