<svg width="417" height="103" viewBox="0 0 417 103" fill="none" xmlns="http://www.w3.org/2000/svg">
<path d="M61.3563 10H85.3563V22H66.1563L65.8563 22.6L81.8563 51.8C85.1229 57.6667 86.7563 62.1333 86.7563 65.2C86.7563 71.9333 84.5229 76.8667 80.0563 80H53.5563V68.4H74.2563L74.5563 67.8L56.5563 35.5C53.9563 30.8333 52.6563 27.0333 52.6563 24.1C52.6563 17.1667 55.5563 12.4667 61.3563 10ZM93.2258 28.9H103.926L105.426 32.5C106.892 31.1667 108.259 30.2333 109.526 29.7C110.859 29.1667 112.826 28.9 115.426 28.9H124.426C127.226 31.6333 129.426 35.1667 131.026 39.5C132.626 43.8333 133.426 48.6 133.426 53.8C133.426 64.9333 130.092 73.6667 123.426 80H114.926C111.392 80 108.592 79.0667 106.526 77.2V95H93.2258V28.9ZM106.526 69.5H116.126C118.592 65.3 119.826 60.2 119.826 54.2C119.826 48.2 118.559 43.2667 116.026 39.4H106.526V69.5ZM170.989 80H149.189C142.522 73.8 139.189 65.3333 139.189 54.6C139.189 49.2 139.922 44.5 141.389 40.5C142.922 36.5 145.322 32.6333 148.589 28.9H171.989C175.456 32.9 177.822 36.8 179.089 40.6C180.356 44.3333 180.989 49 180.989 54.6C180.989 65.3333 177.656 73.8 170.989 80ZM156.289 69.5H163.889C166.289 64.8333 167.489 59.5333 167.489 53.6C167.489 47.6667 166.256 42.9333 163.789 39.4H156.289C153.889 42.8 152.689 47.6333 152.689 53.9C152.689 60.1 153.889 65.3 156.289 69.5ZM210.348 28.9H220.948C223.881 32.6333 225.881 36.3667 226.948 40.1C228.014 43.8333 228.548 48.5 228.548 54.1V80H215.248V53.1C215.248 46.7667 214.381 42.2 212.648 39.4H201.448V80H188.148V28.9H198.548L200.348 32.5C201.814 31.1667 203.181 30.2333 204.448 29.7C205.781 29.1667 207.748 28.9 210.348 28.9ZM241.78 28.9H263.88V39.4H248.28L257.78 53.5C262.047 59.5667 264.414 63.7333 264.88 66C265.147 67.0667 265.28 68.1667 265.28 69.3C265.28 74.0333 263.514 77.6 259.98 80H234.48V69.5H252.78L242.08 53.8C241.614 53.0667 240.88 52.0333 239.88 50.7C238.947 49.3667 238.214 48.3 237.68 47.5C237.147 46.6333 236.78 46 236.58 45.6C236.38 45.2 236.114 44.7 235.78 44.1C235.447 43.4333 235.214 42.8667 235.08 42.4C234.814 41.1333 234.68 40.1 234.68 39.3C234.68 34.4333 237.047 30.9667 241.78 28.9ZM301.165 80H279.365C272.698 73.8 269.365 65.3333 269.365 54.6C269.365 49.2 270.098 44.5 271.565 40.5C273.098 36.5 275.498 32.6333 278.765 28.9H302.165C305.632 32.9 307.998 36.8 309.265 40.6C310.532 44.3333 311.165 49 311.165 54.6C311.165 65.3333 307.832 73.8 301.165 80ZM286.465 69.5H294.065C296.465 64.8333 297.665 59.5333 297.665 53.6C297.665 47.6667 296.432 42.9333 293.965 39.4H286.465C284.065 42.8 282.865 47.6333 282.865 53.9C282.865 60.1 284.065 65.3 286.465 69.5ZM318.423 80V28.9H327.923L330.423 34.3C333.09 30.7 336.457 28.9 340.523 28.9H344.423V42.3H331.723V80H318.423ZM354.183 28.9H376.283V39.4H360.683L370.183 53.5C374.449 59.5667 376.816 63.7333 377.283 66C377.549 67.0667 377.683 68.1667 377.683 69.3C377.683 74.0333 375.916 77.6 372.383 80H346.883V69.5H365.183L354.483 53.8C354.016 53.0667 353.283 52.0333 352.283 50.7C351.349 49.3667 350.616 48.3 350.083 47.5C349.549 46.6333 349.183 46 348.983 45.6C348.783 45.2 348.516 44.7 348.183 44.1C347.849 43.4333 347.616 42.8667 347.483 42.4C347.216 41.1333 347.083 40.1 347.083 39.3C347.083 34.4333 349.449 30.9667 354.183 28.9Z" fill="#D9D9D9"/>
</svg>
